<?xml version="1.0" encoding="utf-8" standalone="no"?>
<!DOCTYPE svg PUBLIC "-//W3C//DTD SVG 1.1//EN"
  "http://www.w3.org/Graphics/SVG/1.1/DTD/svg11.dtd">
<svg xmlns:xlink="http://www.w3.org/1999/xlink" width="720pt" height="432pt" viewBox="0 0 720 432" xmlns="http://www.w3.org/2000/svg" version="1.1">
 <metadata>
  <rdf:RDF xmlns:dc="http://purl.org/dc/elements/1.1/" xmlns:cc="http://creativecommons.org/ns#" xmlns:rdf="http://www.w3.org/1999/02/22-rdf-syntax-ns#">
   <cc:Work>
    <dc:type rdf:resource="http://purl.org/dc/dcmitype/StillImage"/>
    <dc:date>2024-09-08T15:39:00.923767</dc:date>
    <dc:format>image/svg+xml</dc:format>
    <dc:creator>
     <cc:Agent>
      <dc:title>Matplotlib v3.9.2, https://matplotlib.org/</dc:title>
     </cc:Agent>
    </dc:creator>
   </cc:Work>
  </rdf:RDF>
 </metadata>
 <defs>
  <style type="text/css">*{stroke-linejoin: round; stroke-linecap: butt}</style>
 </defs>
 <g id="figure_1">
  <g id="patch_1">
   <path d="M 0 432 
L 720 432 
L 720 0 
L 0 0 
z
" style="fill: #ffffff"/>
  </g>
  <g id="axes_1">
   <g id="patch_2">
    <path d="M 33.64 404.12 
L 709.2 404.12 
L 709.2 10.8 
L 33.64 10.8 
z
" style="fill: #ffffff"/>
   </g>
   <g id="PolyCollection_1">
    <defs>
     <path id="m319f75495a" d="M 156.561305 -220.814069 
L 156.561305 -45.758182 
L 157.176065 -45.758182 
L 157.790825 -45.758182 
L 158.405586 -45.758182 
L 159.020346 -45.758182 
L 159.635106 -45.758182 
L 160.249866 -45.758182 
L 160.864626 -45.758182 
L 161.479387 -45.758182 
L 162.094147 -45.758182 
L 162.708907 -45.758182 
L 163.323667 -45.758182 
L 163.938428 -45.758182 
L 164.553188 -45.758182 
L 165.167948 -45.758182 
L 165.782708 -45.758182 
L 166.397468 -45.758182 
L 167.012229 -45.758182 
L 167.626989 -45.758182 
L 168.241749 -45.758182 
L 168.856509 -45.758182 
L 169.471269 -45.758182 
L 170.08603 -45.758182 
L 170.70079 -45.758182 
L 171.31555 -45.758182 
L 171.93031 -45.758182 
L 172.545071 -45.758182 
L 173.159831 -45.758182 
L 173.774591 -45.758182 
L 174.389351 -45.758182 
L 175.004111 -45.758182 
L 175.618872 -45.758182 
L 176.233632 -45.758182 
L 176.848392 -45.758182 
L 177.463152 -45.758182 
L 178.077912 -45.758182 
L 178.692673 -45.758182 
L 179.307433 -45.758182 
L 179.922193 -45.758182 
L 180.536953 -45.758182 
L 181.151714 -45.758182 
L 181.766474 -45.758182 
L 182.381234 -45.758182 
L 182.995994 -45.758182 
L 183.610754 -45.758182 
L 184.225515 -45.758182 
L 184.840275 -45.758182 
L 185.455035 -45.758182 
L 186.069795 -45.758182 
L 186.684555 -45.758182 
L 187.299316 -45.758182 
L 187.914076 -45.758182 
L 188.528836 -45.758182 
L 189.143596 -45.758182 
L 189.758357 -45.758182 
L 190.373117 -45.758182 
L 190.987877 -45.758182 
L 191.602637 -45.758182 
L 192.217397 -45.758182 
L 192.832158 -45.758182 
L 193.446918 -45.758182 
L 194.061678 -45.758182 
L 194.676438 -45.758182 
L 195.291198 -45.758182 
L 195.905959 -45.758182 
L 196.520719 -45.758182 
L 197.135479 -45.758182 
L 197.750239 -45.758182 
L 198.365 -45.758182 
L 198.97976 -45.758182 
L 199.59452 -45.758182 
L 200.20928 -45.758182 
L 200.82404 -45.758182 
L 201.438801 -45.758182 
L 202.053561 -45.758182 
L 202.668321 -45.758182 
L 203.283081 -45.758182 
L 203.897841 -45.758182 
L 204.512602 -45.758182 
L 205.127362 -45.758182 
L 205.742122 -45.758182 
L 206.356882 -45.758182 
L 206.971643 -45.758182 
L 207.586403 -45.758182 
L 208.201163 -45.758182 
L 208.815923 -45.758182 
L 209.430683 -45.758182 
L 210.045444 -45.758182 
L 210.660204 -45.758182 
L 211.274964 -45.758182 
L 211.889724 -45.758182 
L 212.504484 -45.758182 
L 213.119245 -45.758182 
L 213.734005 -45.758182 
L 214.348765 -45.758182 
L 214.963525 -45.758182 
L 215.578286 -45.758182 
L 216.193046 -45.758182 
L 216.807806 -45.758182 
L 217.422566 -45.758182 
L 218.037326 -45.758182 
L 218.652087 -45.758182 
L 219.266847 -45.758182 
L 219.881607 -45.758182 
L 220.496367 -45.758182 
L 221.111127 -45.758182 
L 221.725888 -45.758182 
L 222.340648 -45.758182 
L 222.955408 -45.758182 
L 223.570168 -45.758182 
L 224.184929 -45.758182 
L 224.799689 -45.758182 
L 225.414449 -45.758182 
L 226.029209 -45.758182 
L 226.643969 -45.758182 
L 227.25873 -45.758182 
L 227.87349 -45.758182 
L 228.48825 -45.758182 
L 229.10301 -45.758182 
L 229.71777 -45.758182 
L 230.332531 -45.758182 
L 230.947291 -45.758182 
L 231.562051 -45.758182 
L 232.176811 -45.758182 
L 232.791572 -45.758182 
L 233.406332 -45.758182 
L 234.021092 -45.758182 
L 234.635852 -45.758182 
L 235.250612 -45.758182 
L 235.865373 -45.758182 
L 236.480133 -45.758182 
L 237.094893 -45.758182 
L 237.709653 -45.758182 
L 238.324414 -45.758182 
L 238.939174 -45.758182 
L 239.553934 -45.758182 
L 240.168694 -45.758182 
L 240.783454 -45.758182 
L 241.398215 -45.758182 
L 242.012975 -45.758182 
L 242.627735 -45.758182 
L 243.242495 -45.758182 
L 243.857255 -45.758182 
L 244.472016 -45.758182 
L 245.086776 -45.758182 
L 245.701536 -45.758182 
L 246.316296 -45.758182 
L 246.931057 -45.758182 
L 247.545817 -45.758182 
L 248.160577 -45.758182 
L 248.775337 -45.758182 
L 249.390097 -45.758182 
L 250.004858 -45.758182 
L 250.619618 -45.758182 
L 251.234378 -45.758182 
L 251.849138 -45.758182 
L 252.463898 -45.758182 
L 253.078659 -45.758182 
L 253.693419 -45.758182 
L 254.308179 -45.758182 
L 254.922939 -45.758182 
L 255.5377 -45.758182 
L 256.15246 -45.758182 
L 256.76722 -45.758182 
L 257.38198 -45.758182 
L 257.99674 -45.758182 
L 258.611501 -45.758182 
L 259.226261 -45.758182 
L 259.841021 -45.758182 
L 260.455781 -45.758182 
L 261.070541 -45.758182 
L 261.685302 -45.758182 
L 262.300062 -45.758182 
L 262.914822 -45.758182 
L 263.529582 -45.758182 
L 264.144343 -45.758182 
L 264.759103 -45.758182 
L 265.373863 -45.758182 
L 265.988623 -45.758182 
L 266.603383 -45.758182 
L 267.218144 -45.758182 
L 267.832904 -45.758182 
L 268.447664 -45.758182 
L 269.062424 -45.758182 
L 269.677184 -45.758182 
L 270.291945 -45.758182 
L 270.906705 -45.758182 
L 271.521465 -45.758182 
L 272.136225 -45.758182 
L 272.750986 -45.758182 
L 273.365746 -45.758182 
L 273.980506 -45.758182 
L 274.595266 -45.758182 
L 275.210026 -45.758182 
L 275.824787 -45.758182 
L 276.439547 -45.758182 
L 277.054307 -45.758182 
L 277.669067 -45.758182 
L 278.283827 -45.758182 
L 278.898588 -45.758182 
L 279.513348 -45.758182 
L 280.128108 -45.758182 
L 280.742868 -45.758182 
L 281.357629 -45.758182 
L 281.972389 -45.758182 
L 282.587149 -45.758182 
L 283.201909 -45.758182 
L 283.816669 -45.758182 
L 284.43143 -45.758182 
L 285.04619 -45.758182 
L 285.66095 -45.758182 
L 286.27571 -45.758182 
L 286.89047 -45.758182 
L 287.505231 -45.758182 
L 288.119991 -45.758182 
L 288.734751 -45.758182 
L 289.349511 -45.758182 
L 289.964272 -45.758182 
L 290.579032 -45.758182 
L 291.193792 -45.758182 
L 291.808552 -45.758182 
L 292.423312 -45.758182 
L 293.038073 -45.758182 
L 293.652833 -45.758182 
L 294.267593 -45.758182 
L 294.882353 -45.758182 
L 295.497113 -45.758182 
L 296.111874 -45.758182 
L 296.726634 -45.758182 
L 297.341394 -45.758182 
L 297.956154 -45.758182 
L 298.570915 -45.758182 
L 299.185675 -45.758182 
L 299.800435 -45.758182 
L 300.415195 -45.758182 
L 301.029955 -45.758182 
L 301.644716 -45.758182 
L 302.259476 -45.758182 
L 302.874236 -45.758182 
L 303.488996 -45.758182 
L 304.103756 -45.758182 
L 304.718517 -45.758182 
L 305.333277 -45.758182 
L 305.948037 -45.758182 
L 306.562797 -45.758182 
L 307.177558 -45.758182 
L 307.792318 -45.758182 
L 308.407078 -45.758182 
L 309.021838 -45.758182 
L 309.636598 -45.758182 
L 310.251359 -45.758182 
L 310.866119 -45.758182 
L 311.480879 -45.758182 
L 312.095639 -45.758182 
L 312.710399 -45.758182 
L 313.32516 -45.758182 
L 313.93992 -45.758182 
L 314.55468 -45.758182 
L 315.16944 -45.758182 
L 315.784201 -45.758182 
L 316.398961 -45.758182 
L 317.013721 -45.758182 
L 317.628481 -45.758182 
L 318.243241 -45.758182 
L 318.858002 -45.758182 
L 319.472762 -45.758182 
L 320.087522 -45.758182 
L 320.702282 -45.758182 
L 321.317042 -45.758182 
L 321.931803 -45.758182 
L 322.546563 -45.758182 
L 323.161323 -45.758182 
L 323.776083 -45.758182 
L 324.390844 -45.758182 
L 325.005604 -45.758182 
L 325.620364 -45.758182 
L 326.235124 -45.758182 
L 326.849884 -45.758182 
L 327.464645 -45.758182 
L 328.079405 -45.758182 
L 328.694165 -45.758182 
L 329.308925 -45.758182 
L 329.923686 -45.758182 
L 330.538446 -45.758182 
L 331.153206 -45.758182 
L 331.767966 -45.758182 
L 332.382726 -45.758182 
L 332.997487 -45.758182 
L 333.612247 -45.758182 
L 334.227007 -45.758182 
L 334.841767 -45.758182 
L 335.456527 -45.758182 
L 336.071288 -45.758182 
L 336.686048 -45.758182 
L 337.300808 -45.758182 
L 337.915568 -45.758182 
L 338.530329 -45.758182 
L 339.145089 -45.758182 
L 339.759849 -45.758182 
L 340.374609 -45.758182 
L 340.989369 -45.758182 
L 341.60413 -45.758182 
L 342.21889 -45.758182 
L 342.83365 -45.758182 
L 343.44841 -45.758182 
L 344.06317 -45.758182 
L 344.677931 -45.758182 
L 345.292691 -45.758182 
L 345.907451 -45.758182 
L 346.522211 -45.758182 
L 347.136972 -45.758182 
L 347.751732 -45.758182 
L 348.366492 -45.758182 
L 348.981252 -45.758182 
L 349.596012 -45.758182 
L 350.210773 -45.758182 
L 350.825533 -45.758182 
L 351.440293 -45.758182 
L 352.055053 -45.758182 
L 352.669813 -45.758182 
L 353.284574 -45.758182 
L 353.899334 -45.758182 
L 354.514094 -45.758182 
L 355.128854 -45.758182 
L 355.743615 -45.758182 
L 356.358375 -45.758182 
L 356.973135 -45.758182 
L 357.587895 -45.758182 
L 358.202655 -45.758182 
L 358.817416 -45.758182 
L 359.432176 -45.758182 
L 360.046936 -45.758182 
L 360.661696 -45.758182 
L 361.276456 -45.758182 
L 361.891217 -45.758182 
L 362.505977 -45.758182 
L 363.120737 -45.758182 
L 363.735497 -45.758182 
L 364.350258 -45.758182 
L 364.965018 -45.758182 
L 365.579778 -45.758182 
L 366.194538 -45.758182 
L 366.809298 -45.758182 
L 367.424059 -45.758182 
L 368.038819 -45.758182 
L 368.653579 -45.758182 
L 369.268339 -45.758182 
L 369.883099 -45.758182 
L 370.49786 -45.758182 
L 371.11262 -45.758182 
L 371.72738 -45.758182 
L 372.34214 -45.758182 
L 372.956901 -45.758182 
L 373.571661 -45.758182 
L 374.186421 -45.758182 
L 374.801181 -45.758182 
L 375.415941 -45.758182 
L 376.030702 -45.758182 
L 376.645462 -45.758182 
L 377.260222 -45.758182 
L 377.874982 -45.758182 
L 378.489742 -45.758182 
L 379.104503 -45.758182 
L 379.719263 -45.758182 
L 380.334023 -45.758182 
L 380.948783 -45.758182 
L 381.563544 -45.758182 
L 382.178304 -45.758182 
L 382.793064 -45.758182 
L 383.407824 -45.758182 
L 384.022584 -45.758182 
L 384.637345 -45.758182 
L 385.252105 -45.758182 
L 385.866865 -45.758182 
L 386.481625 -45.758182 
L 387.096385 -45.758182 
L 387.711146 -45.758182 
L 388.325906 -45.758182 
L 388.940666 -45.758182 
L 389.555426 -45.758182 
L 390.170187 -45.758182 
L 390.784947 -45.758182 
L 391.399707 -45.758182 
L 392.014467 -45.758182 
L 392.629227 -45.758182 
L 393.243988 -45.758182 
L 393.858748 -45.758182 
L 394.473508 -45.758182 
L 395.088268 -45.758182 
L 395.703028 -45.758182 
L 396.317789 -45.758182 
L 396.932549 -45.758182 
L 397.547309 -45.758182 
L 398.162069 -45.758182 
L 398.77683 -45.758182 
L 399.39159 -45.758182 
L 400.00635 -45.758182 
L 400.62111 -45.758182 
L 401.23587 -45.758182 
L 401.850631 -45.758182 
L 402.465391 -45.758182 
L 403.080151 -45.758182 
L 403.694911 -45.758182 
L 404.309671 -45.758182 
L 404.924432 -45.758182 
L 405.539192 -45.758182 
L 406.153952 -45.758182 
L 406.768712 -45.758182 
L 407.383473 -45.758182 
L 407.998233 -45.758182 
L 408.612993 -45.758182 
L 409.227753 -45.758182 
L 409.842513 -45.758182 
L 410.457274 -45.758182 
L 411.072034 -45.758182 
L 411.686794 -45.758182 
L 412.301554 -45.758182 
L 412.916314 -45.758182 
L 413.531075 -45.758182 
L 414.145835 -45.758182 
L 414.760595 -45.758182 
L 415.375355 -45.758182 
L 415.990116 -45.758182 
L 416.604876 -45.758182 
L 417.219636 -45.758182 
L 417.834396 -45.758182 
L 418.449156 -45.758182 
L 419.063917 -45.758182 
L 419.678677 -45.758182 
L 420.293437 -45.758182 
L 420.908197 -45.758182 
L 421.522958 -45.758182 
L 422.137718 -45.758182 
L 422.752478 -45.758182 
L 423.367238 -45.758182 
L 423.981998 -45.758182 
L 424.596759 -45.758182 
L 425.211519 -45.758182 
L 425.826279 -45.758182 
L 426.441039 -45.758182 
L 427.055799 -45.758182 
L 427.67056 -45.758182 
L 428.28532 -45.758182 
L 428.90008 -45.758182 
L 429.51484 -45.758182 
L 430.129601 -45.758182 
L 430.744361 -45.758182 
L 431.359121 -45.758182 
L 431.973881 -45.758182 
L 432.588641 -45.758182 
L 433.203402 -45.758182 
L 433.818162 -45.758182 
L 434.432922 -45.758182 
L 435.047682 -45.758182 
L 435.662442 -45.758182 
L 436.277203 -45.758182 
L 436.891963 -45.758182 
L 437.506723 -45.758182 
L 438.121483 -45.758182 
L 438.736244 -45.758182 
L 439.351004 -45.758182 
L 439.965764 -45.758182 
L 440.580524 -45.758182 
L 441.195284 -45.758182 
L 441.810045 -45.758182 
L 442.424805 -45.758182 
L 443.039565 -45.758182 
L 443.654325 -45.758182 
L 444.269085 -45.758182 
L 444.883846 -45.758182 
L 445.498606 -45.758182 
L 446.113366 -45.758182 
L 446.728126 -45.758182 
L 447.342887 -45.758182 
L 447.957647 -45.758182 
L 448.572407 -45.758182 
L 449.187167 -45.758182 
L 449.801927 -45.758182 
L 450.416688 -45.758182 
L 451.031448 -45.758182 
L 451.646208 -45.758182 
L 452.260968 -45.758182 
L 452.875728 -45.758182 
L 453.490489 -45.758182 
L 454.105249 -45.758182 
L 454.720009 -45.758182 
L 455.334769 -45.758182 
L 455.94953 -45.758182 
L 456.56429 -45.758182 
L 457.17905 -45.758182 
L 457.79381 -45.758182 
L 458.40857 -45.758182 
L 459.023331 -45.758182 
L 459.638091 -45.758182 
L 460.252851 -45.758182 
L 460.867611 -45.758182 
L 461.482371 -45.758182 
L 462.097132 -45.758182 
L 462.711892 -45.758182 
L 463.326652 -45.758182 
L 463.941412 -45.758182 
L 464.556173 -45.758182 
L 465.170933 -45.758182 
L 465.785693 -45.758182 
L 466.400453 -45.758182 
L 467.015213 -45.758182 
L 467.629974 -45.758182 
L 468.244734 -45.758182 
L 468.859494 -45.758182 
L 469.474254 -45.758182 
L 470.089014 -45.758182 
L 470.703775 -45.758182 
L 471.318535 -45.758182 
L 471.933295 -45.758182 
L 472.548055 -45.758182 
L 473.162816 -45.758182 
L 473.777576 -45.758182 
L 474.392336 -45.758182 
L 475.007096 -45.758182 
L 475.621856 -45.758182 
L 476.236617 -45.758182 
L 476.851377 -45.758182 
L 477.466137 -45.758182 
L 478.080897 -45.758182 
L 478.695657 -45.758182 
L 479.310418 -45.758182 
L 479.925178 -45.758182 
L 480.539938 -45.758182 
L 481.154698 -45.758182 
L 481.769459 -45.758182 
L 482.384219 -45.758182 
L 482.998979 -45.758182 
L 483.613739 -45.758182 
L 484.228499 -45.758182 
L 484.84326 -45.758182 
L 485.45802 -45.758182 
L 486.07278 -45.758182 
L 486.68754 -45.758182 
L 487.3023 -45.758182 
L 487.917061 -45.758182 
L 488.531821 -45.758182 
L 489.146581 -45.758182 
L 489.761341 -45.758182 
L 490.376102 -45.758182 
L 490.990862 -45.758182 
L 491.605622 -45.758182 
L 492.220382 -45.758182 
L 492.835142 -45.758182 
L 493.449903 -45.758182 
L 494.064663 -45.758182 
L 494.679423 -45.758182 
L 495.294183 -45.758182 
L 495.908943 -45.758182 
L 496.523704 -45.758182 
L 497.138464 -45.758182 
L 497.753224 -45.758182 
L 498.367984 -45.758182 
L 498.982745 -45.758182 
L 499.597505 -45.758182 
L 500.212265 -45.758182 
L 500.827025 -45.758182 
L 501.441785 -45.758182 
L 502.056546 -45.758182 
L 502.671306 -45.758182 
L 503.286066 -45.758182 
L 503.900826 -45.758182 
L 504.515586 -45.758182 
L 505.130347 -45.758182 
L 505.745107 -45.758182 
L 506.359867 -45.758182 
L 506.974627 -45.758182 
L 507.589388 -45.758182 
L 508.204148 -45.758182 
L 508.818908 -45.758182 
L 509.433668 -45.758182 
L 510.048428 -45.758182 
L 510.663189 -45.758182 
L 511.277949 -45.758182 
L 511.892709 -45.758182 
L 512.507469 -45.758182 
L 513.12223 -45.758182 
L 513.73699 -45.758182 
L 514.35175 -45.758182 
L 514.96651 -45.758182 
L 515.58127 -45.758182 
L 516.196031 -45.758182 
L 516.810791 -45.758182 
L 517.425551 -45.758182 
L 518.040311 -45.758182 
L 518.655071 -45.758182 
L 519.269832 -45.758182 
L 519.884592 -45.758182 
L 520.499352 -45.758182 
L 521.114112 -45.758182 
L 521.728873 -45.758182 
L 522.343633 -45.758182 
L 522.958393 -45.758182 
L 523.573153 -45.758182 
L 524.187913 -45.758182 
L 524.802674 -45.758182 
L 525.417434 -45.758182 
L 526.032194 -45.758182 
L 526.646954 -45.758182 
L 527.261714 -45.758182 
L 527.876475 -45.758182 
L 528.491235 -45.758182 
L 529.105995 -45.758182 
L 529.720755 -45.758182 
L 530.335516 -45.758182 
L 530.950276 -45.758182 
L 531.565036 -45.758182 
L 532.179796 -45.758182 
L 532.794556 -45.758182 
L 533.409317 -45.758182 
L 534.024077 -45.758182 
L 534.638837 -45.758182 
L 535.253597 -45.758182 
L 535.868357 -45.758182 
L 536.483118 -45.758182 
L 537.097878 -45.758182 
L 537.712638 -45.758182 
L 538.327398 -45.758182 
L 538.942159 -45.758182 
L 539.556919 -45.758182 
L 540.171679 -45.758182 
L 540.786439 -45.758182 
L 541.401199 -45.758182 
L 542.01596 -45.758182 
L 542.63072 -45.758182 
L 543.24548 -45.758182 
L 543.86024 -45.758182 
L 544.475 -45.758182 
L 545.089761 -45.758182 
L 545.704521 -45.758182 
L 546.319281 -45.758182 
L 546.934041 -45.758182 
L 547.548802 -45.758182 
L 548.163562 -45.758182 
L 548.778322 -45.758182 
L 549.393082 -45.758182 
L 550.007842 -45.758182 
L 550.622603 -45.758182 
L 551.237363 -45.758182 
L 551.852123 -45.758182 
L 552.466883 -45.758182 
L 553.081643 -45.758182 
L 553.696404 -45.758182 
L 554.311164 -45.758182 
L 554.925924 -45.758182 
L 555.540684 -45.758182 
L 556.155445 -45.758182 
L 556.770205 -45.758182 
L 557.384965 -45.758182 
L 557.999725 -45.758182 
L 558.614485 -45.758182 
L 559.229246 -45.758182 
L 559.844006 -45.758182 
L 560.458766 -45.758182 
L 561.073526 -45.758182 
L 561.688286 -45.758182 
L 562.303047 -45.758182 
L 562.917807 -45.758182 
L 563.532567 -45.758182 
L 564.147327 -45.758182 
L 564.762088 -45.758182 
L 565.376848 -45.758182 
L 565.991608 -45.758182 
L 566.606368 -45.758182 
L 567.221128 -45.758182 
L 567.835889 -45.758182 
L 568.450649 -45.758182 
L 569.065409 -45.758182 
L 569.680169 -45.758182 
L 570.294929 -45.758182 
L 570.90969 -45.758182 
L 571.52445 -45.758182 
L 572.13921 -45.758182 
L 572.75397 -45.758182 
L 573.368731 -45.758182 
L 573.983491 -45.758182 
L 574.598251 -45.758182 
L 575.213011 -45.758182 
L 575.827771 -45.758182 
L 576.442532 -45.758182 
L 577.057292 -45.758182 
L 577.672052 -45.758182 
L 578.286812 -45.758182 
L 578.901572 -45.758182 
L 579.516333 -45.758182 
L 580.131093 -45.758182 
L 580.745853 -45.758182 
L 581.360613 -45.758182 
L 581.975374 -45.758182 
L 582.590134 -45.758182 
L 583.204894 -45.758182 
L 583.819654 -45.758182 
L 584.434414 -45.758182 
L 585.049175 -45.758182 
L 585.663935 -45.758182 
L 586.278695 -45.758182 
L 586.278695 -220.814069 
L 586.278695 -220.814069 
L 585.663935 -219.813752 
L 585.049175 -218.8163 
L 584.434414 -217.821716 
L 583.819654 -216.829997 
L 583.204894 -215.841145 
L 582.590134 -214.855159 
L 581.975374 -213.872039 
L 581.360613 -212.891785 
L 580.745853 -211.914398 
L 580.131093 -210.939876 
L 579.516333 -209.968222 
L 578.901572 -208.999433 
L 578.286812 -208.03351 
L 577.672052 -207.070454 
L 577.057292 -206.110264 
L 576.442532 -205.152941 
L 575.827771 -204.198483 
L 575.213011 -203.246892 
L 574.598251 -202.298167 
L 573.983491 -201.352308 
L 573.368731 -200.409316 
L 572.75397 -199.469189 
L 572.13921 -198.531929 
L 571.52445 -197.597535 
L 570.90969 -196.666008 
L 570.294929 -195.737346 
L 569.680169 -194.811551 
L 569.065409 -193.888622 
L 568.450649 -192.96856 
L 567.835889 -192.051363 
L 567.221128 -191.137033 
L 566.606368 -190.225569 
L 565.991608 -189.316972 
L 565.376848 -188.41124 
L 564.762088 -187.508375 
L 564.147327 -186.608376 
L 563.532567 -185.711243 
L 562.917807 -184.816977 
L 562.303047 -183.925577 
L 561.688286 -183.037043 
L 561.073526 -182.151375 
L 560.458766 -181.268573 
L 559.844006 -180.388638 
L 559.229246 -179.511569 
L 558.614485 -178.637366 
L 557.999725 -177.76603 
L 557.384965 -176.897559 
L 556.770205 -176.031955 
L 556.155445 -175.169217 
L 555.540684 -174.309346 
L 554.925924 -173.452341 
L 554.311164 -172.598201 
L 553.696404 -171.746928 
L 553.081643 -170.898522 
L 552.466883 -170.052981 
L 551.852123 -169.210307 
L 551.237363 -168.370499 
L 550.622603 -167.533558 
L 550.007842 -166.699482 
L 549.393082 -165.868273 
L 548.778322 -165.03993 
L 548.163562 -164.214453 
L 547.548802 -163.391843 
L 546.934041 -162.572098 
L 546.319281 -161.75522 
L 545.704521 -160.941209 
L 545.089761 -160.130063 
L 544.475 -159.321784 
L 543.86024 -158.516371 
L 543.24548 -157.713824 
L 542.63072 -156.914143 
L 542.01596 -156.117329 
L 541.401199 -155.323381 
L 540.786439 -154.532299 
L 540.171679 -153.744083 
L 539.556919 -152.958734 
L 538.942159 -152.176251 
L 538.327398 -151.396634 
L 537.712638 -150.619883 
L 537.097878 -149.845999 
L 536.483118 -149.07498 
L 535.868357 -148.306828 
L 535.253597 -147.541543 
L 534.638837 -146.779123 
L 534.024077 -146.01957 
L 533.409317 -145.262883 
L 532.794556 -144.509062 
L 532.179796 -143.758108 
L 531.565036 -143.010019 
L 530.950276 -142.264797 
L 530.335516 -141.522441 
L 529.720755 -140.782952 
L 529.105995 -140.046328 
L 528.491235 -139.312571 
L 527.876475 -138.58168 
L 527.261714 -137.853656 
L 526.646954 -137.128497 
L 526.032194 -136.406205 
L 525.417434 -135.686779 
L 524.802674 -134.97022 
L 524.187913 -134.256526 
L 523.573153 -133.545699 
L 522.958393 -132.837738 
L 522.343633 -132.132643 
L 521.728873 -131.430415 
L 521.114112 -130.731053 
L 520.499352 -130.034557 
L 519.884592 -129.340927 
L 519.269832 -128.650163 
L 518.655071 -127.962266 
L 518.040311 -127.277235 
L 517.425551 -126.59507 
L 516.810791 -125.915772 
L 516.196031 -125.239339 
L 515.58127 -124.565773 
L 514.96651 -123.895073 
L 514.35175 -123.22724 
L 513.73699 -122.562272 
L 513.12223 -121.900171 
L 512.507469 -121.240936 
L 511.892709 -120.584568 
L 511.277949 -119.931065 
L 510.663189 -119.280429 
L 510.048428 -118.632659 
L 509.433668 -117.987755 
L 508.818908 -117.345718 
L 508.204148 -116.706547 
L 507.589388 -116.070242 
L 506.974627 -115.436803 
L 506.359867 -114.80623 
L 505.745107 -114.178524 
L 505.130347 -113.553684 
L 504.515586 -112.93171 
L 503.900826 -112.312603 
L 503.286066 -111.696361 
L 502.671306 -111.082986 
L 502.056546 -110.472478 
L 501.441785 -109.864835 
L 500.827025 -109.260059 
L 500.212265 -108.658148 
L 499.597505 -108.059105 
L 498.982745 -107.462927 
L 498.367984 -106.869615 
L 497.753224 -106.27917 
L 497.138464 -105.691591 
L 496.523704 -105.106879 
L 495.908943 -104.525032 
L 495.294183 -103.946052 
L 494.679423 -103.369938 
L 494.064663 -102.79669 
L 493.449903 -102.226309 
L 492.835142 -101.658794 
L 492.220382 -101.094144 
L 491.605622 -100.532362 
L 490.990862 -99.973445 
L 490.376102 -99.417395 
L 489.761341 -98.864211 
L 489.146581 -98.313893 
L 488.531821 -97.766441 
L 487.917061 -97.221856 
L 487.3023 -96.680137 
L 486.68754 -96.141284 
L 486.07278 -95.605297 
L 485.45802 -95.072177 
L 484.84326 -94.541923 
L 484.228499 -94.014535 
L 483.613739 -93.490013 
L 482.998979 -92.968358 
L 482.384219 -92.449569 
L 481.769459 -91.933646 
L 481.154698 -91.420589 
L 480.539938 -90.910398 
L 479.925178 -90.403074 
L 479.310418 -89.898616 
L 478.695657 -89.397024 
L 478.080897 -88.898299 
L 477.466137 -88.40244 
L 476.851377 -87.909446 
L 476.236617 -87.41932 
L 475.621856 -86.932059 
L 475.007096 -86.447665 
L 474.392336 -85.966137 
L 473.777576 -85.487475 
L 473.162816 -85.011679 
L 472.548055 -84.53875 
L 471.933295 -84.068687 
L 471.318535 -83.60149 
L 470.703775 -83.137159 
L 470.089014 -82.675695 
L 469.474254 -82.217096 
L 468.859494 -81.761364 
L 468.244734 -81.308499 
L 467.629974 -80.858499 
L 467.015213 -80.411366 
L 466.400453 -79.967099 
L 465.785693 -79.525698 
L 465.170933 -79.087164 
L 464.556173 -78.651495 
L 463.941412 -78.218693 
L 463.326652 -77.788758 
L 462.711892 -77.361688 
L 462.097132 -76.937485 
L 461.482371 -76.516148 
L 460.867611 -76.097677 
L 460.252851 -75.682072 
L 459.638091 -75.269334 
L 459.023331 -74.859462 
L 458.40857 -74.452456 
L 457.79381 -74.048316 
L 457.17905 -73.647043 
L 456.56429 -73.248635 
L 455.94953 -72.853095 
L 455.334769 -72.46042 
L 454.720009 -72.070611 
L 454.105249 -71.683669 
L 453.490489 -71.299593 
L 452.875728 -70.918383 
L 452.260968 -70.54004 
L 451.646208 -70.164563 
L 451.031448 -69.791952 
L 450.416688 -69.422207 
L 449.801927 -69.055328 
L 449.187167 -68.691316 
L 448.572407 -68.33017 
L 447.957647 -67.97189 
L 447.342887 -67.616476 
L 446.728126 -67.263929 
L 446.113366 -66.914248 
L 445.498606 -66.567433 
L 444.883846 -66.223484 
L 444.269085 -65.882402 
L 443.654325 -65.544186 
L 443.039565 -65.208836 
L 442.424805 -64.876352 
L 441.810045 -64.546735 
L 441.195284 -64.219984 
L 440.580524 -63.896099 
L 439.965764 -63.57508 
L 439.351004 -63.256927 
L 438.736244 -62.941641 
L 438.121483 -62.629221 
L 437.506723 -62.319667 
L 436.891963 -62.01298 
L 436.277203 -61.709158 
L 435.662442 -61.408203 
L 435.047682 -61.110115 
L 434.432922 -60.814892 
L 433.818162 -60.522536 
L 433.203402 -60.233046 
L 432.588641 -59.946422 
L 431.973881 -59.662664 
L 431.359121 -59.381773 
L 430.744361 -59.103747 
L 430.129601 -58.828589 
L 429.51484 -58.556296 
L 428.90008 -58.286869 
L 428.28532 -58.020309 
L 427.67056 -57.756615 
L 427.055799 -57.495788 
L 426.441039 -57.237826 
L 425.826279 -56.982731 
L 425.211519 -56.730502 
L 424.596759 -56.481139 
L 423.981998 -56.234643 
L 423.367238 -55.991012 
L 422.752478 -55.750248 
L 422.137718 -55.51235 
L 421.522958 -55.277319 
L 420.908197 -55.045153 
L 420.293437 -54.815854 
L 419.678677 -54.589422 
L 419.063917 -54.365855 
L 418.449156 -54.145155 
L 417.834396 -53.92732 
L 417.219636 -53.712352 
L 416.604876 -53.500251 
L 415.990116 -53.291015 
L 415.375355 -53.084646 
L 414.760595 -52.881143 
L 414.145835 -52.680507 
L 413.531075 -52.482736 
L 412.916314 -52.287832 
L 412.301554 -52.095794 
L 411.686794 -51.906622 
L 411.072034 -51.720317 
L 410.457274 -51.536877 
L 409.842513 -51.356304 
L 409.227753 -51.178597 
L 408.612993 -51.003757 
L 407.998233 -50.831783 
L 407.383473 -50.662675 
L 406.768712 -50.496433 
L 406.153952 -50.333057 
L 405.539192 -50.172548 
L 404.924432 -50.014905 
L 404.309671 -49.860128 
L 403.694911 -49.708217 
L 403.080151 -49.559173 
L 402.465391 -49.412994 
L 401.850631 -49.269683 
L 401.23587 -49.129237 
L 400.62111 -48.991657 
L 400.00635 -48.856944 
L 399.39159 -48.725097 
L 398.77683 -48.596116 
L 398.162069 -48.470002 
L 397.547309 -48.346754 
L 396.932549 -48.226372 
L 396.317789 -48.108856 
L 395.703028 -47.994206 
L 395.088268 -47.882423 
L 394.473508 -47.773506 
L 393.858748 -47.667455 
L 393.243988 -47.56427 
L 392.629227 -47.463952 
L 392.014467 -47.3665 
L 391.399707 -47.271914 
L 390.784947 -47.180194 
L 390.170187 -47.091341 
L 389.555426 -47.005354 
L 388.940666 -46.922233 
L 388.325906 -46.841978 
L 387.711146 -46.76459 
L 387.096385 -46.690068 
L 386.481625 -46.618412 
L 385.866865 -46.549622 
L 385.252105 -46.483698 
L 384.637345 -46.420641 
L 384.022584 -46.36045 
L 383.407824 -46.303125 
L 382.793064 -46.248667 
L 382.178304 -46.197075 
L 381.563544 -46.148349 
L 380.948783 -46.102489 
L 380.334023 -46.059495 
L 379.719263 -46.019368 
L 379.104503 -45.982107 
L 378.489742 -45.947712 
L 377.874982 -45.916183 
L 377.260222 -45.887521 
L 376.645462 -45.861725 
L 376.030702 -45.838795 
L 375.415941 -45.818731 
L 374.801181 -45.801534 
L 374.186421 -45.787202 
L 373.571661 -45.775738 
L 372.956901 -45.767139 
L 372.34214 -45.761406 
L 371.72738 -45.75854 
L 371.11262 -45.75854 
L 370.49786 -45.761406 
L 369.883099 -45.767139 
L 369.268339 -45.775738 
L 368.653579 -45.787202 
L 368.038819 -45.801534 
L 367.424059 -45.818731 
L 366.809298 -45.838795 
L 366.194538 -45.861725 
L 365.579778 -45.887521 
L 364.965018 -45.916183 
L 364.350258 -45.947712 
L 363.735497 -45.982107 
L 363.120737 -46.019368 
L 362.505977 -46.059495 
L 361.891217 -46.102489 
L 361.276456 -46.148349 
L 360.661696 -46.197075 
L 360.046936 -46.248667 
L 359.432176 -46.303125 
L 358.817416 -46.36045 
L 358.202655 -46.420641 
L 357.587895 -46.483698 
L 356.973135 -46.549622 
L 356.358375 -46.618412 
L 355.743615 -46.690068 
L 355.128854 -46.76459 
L 354.514094 -46.841978 
L 353.899334 -46.922233 
L 353.284574 -47.005354 
L 352.669813 -47.091341 
L 352.055053 -47.180194 
L 351.440293 -47.271914 
L 350.825533 -47.3665 
L 350.210773 -47.463952 
L 349.596012 -47.56427 
L 348.981252 -47.667455 
L 348.366492 -47.773506 
L 347.751732 -47.882423 
L 347.136972 -47.994206 
L 346.522211 -48.108856 
L 345.907451 -48.226372 
L 345.292691 -48.346754 
L 344.677931 -48.470002 
L 344.06317 -48.596116 
L 343.44841 -48.725097 
L 342.83365 -48.856944 
L 342.21889 -48.991657 
L 341.60413 -49.129237 
L 340.989369 -49.269683 
L 340.374609 -49.412994 
L 339.759849 -49.559173 
L 339.145089 -49.708217 
L 338.530329 -49.860128 
L 337.915568 -50.014905 
L 337.300808 -50.172548 
L 336.686048 -50.333057 
L 336.071288 -50.496433 
L 335.456527 -50.662675 
L 334.841767 -50.831783 
L 334.227007 -51.003757 
L 333.612247 -51.178597 
L 332.997487 -51.356304 
L 332.382726 -51.536877 
L 331.767966 -51.720317 
L 331.153206 -51.906622 
L 330.538446 -52.095794 
L 329.923686 -52.287832 
L 329.308925 -52.482736 
L 328.694165 -52.680507 
L 328.079405 -52.881143 
L 327.464645 -53.084646 
L 326.849884 -53.291015 
L 326.235124 -53.500251 
L 325.620364 -53.712352 
L 325.005604 -53.92732 
L 324.390844 -54.145155 
L 323.776083 -54.365855 
L 323.161323 -54.589422 
L 322.546563 -54.815854 
L 321.931803 -55.045153 
L 321.317042 -55.277319 
L 320.702282 -55.51235 
L 320.087522 -55.750248 
L 319.472762 -55.991012 
L 318.858002 -56.234643 
L 318.243241 -56.481139 
L 317.628481 -56.730502 
L 317.013721 -56.982731 
L 316.398961 -57.237826 
L 315.784201 -57.495788 
L 315.16944 -57.756615 
L 314.55468 -58.020309 
L 313.93992 -58.286869 
L 313.32516 -58.556296 
L 312.710399 -58.828589 
L 312.095639 -59.103747 
L 311.480879 -59.381773 
L 310.866119 -59.662664 
L 310.251359 -59.946422 
L 309.636598 -60.233046 
L 309.021838 -60.522536 
L 308.407078 -60.814892 
L 307.792318 -61.110115 
L 307.177558 -61.408203 
L 306.562797 -61.709158 
L 305.948037 -62.01298 
L 305.333277 -62.319667 
L 304.718517 -62.629221 
L 304.103756 -62.941641 
L 303.488996 -63.256927 
L 302.874236 -63.57508 
L 302.259476 -63.896099 
L 301.644716 -64.219984 
L 301.029955 -64.546735 
L 300.415195 -64.876352 
L 299.800435 -65.208836 
L 299.185675 -65.544186 
L 298.570915 -65.882402 
L 297.956154 -66.223484 
L 297.341394 -66.567433 
L 296.726634 -66.914248 
L 296.111874 -67.263929 
L 295.497113 -67.616476 
L 294.882353 -67.97189 
L 294.267593 -68.33017 
L 293.652833 -68.691316 
L 293.038073 -69.055328 
L 292.423312 -69.422207 
L 291.808552 -69.791952 
L 291.193792 -70.164563 
L 290.579032 -70.54004 
L 289.964272 -70.918383 
L 289.349511 -71.299593 
L 288.734751 -71.683669 
L 288.119991 -72.070611 
L 287.505231 -72.46042 
L 286.89047 -72.853095 
L 286.27571 -73.248635 
L 285.66095 -73.647043 
L 285.04619 -74.048316 
L 284.43143 -74.452456 
L 283.816669 -74.859462 
L 283.201909 -75.269334 
L 282.587149 -75.682072 
L 281.972389 -76.097677 
L 281.357629 -76.516148 
L 280.742868 -76.937485 
L 280.128108 -77.361688 
L 279.513348 -77.788758 
L 278.898588 -78.218693 
L 278.283827 -78.651495 
L 277.669067 -79.087164 
L 277.054307 -79.525698 
L 276.439547 -79.967099 
L 275.824787 -80.411366 
L 275.210026 -80.858499 
L 274.595266 -81.308499 
L 273.980506 -81.761364 
L 273.365746 -82.217096 
L 272.750986 -82.675695 
L 272.136225 -83.137159 
L 271.521465 -83.60149 
L 270.906705 -84.068687 
L 270.291945 -84.53875 
L 269.677184 -85.011679 
L 269.062424 -85.487475 
L 268.447664 -85.966137 
L 267.832904 -86.447665 
L 267.218144 -86.932059 
L 266.603383 -87.41932 
L 265.988623 -87.909446 
L 265.373863 -88.40244 
L 264.759103 -88.898299 
L 264.144343 -89.397024 
L 263.529582 -89.898616 
L 262.914822 -90.403074 
L 262.300062 -90.910398 
L 261.685302 -91.420589 
L 261.070541 -91.933646 
L 260.455781 -92.449569 
L 259.841021 -92.968358 
L 259.226261 -93.490013 
L 258.611501 -94.014535 
L 257.99674 -94.541923 
L 257.38198 -95.072177 
L 256.76722 -95.605297 
L 256.15246 -96.141284 
L 255.5377 -96.680137 
L 254.922939 -97.221856 
L 254.308179 -97.766441 
L 253.693419 -98.313893 
L 253.078659 -98.864211 
L 252.463898 -99.417395 
L 251.849138 -99.973445 
L 251.234378 -100.532362 
L 250.619618 -101.094144 
L 250.004858 -101.658794 
L 249.390097 -102.226309 
L 248.775337 -102.79669 
L 248.160577 -103.369938 
L 247.545817 -103.946052 
L 246.931057 -104.525032 
L 246.316296 -105.106879 
L 245.701536 -105.691591 
L 245.086776 -106.27917 
L 244.472016 -106.869615 
L 243.857255 -107.462927 
L 243.242495 -108.059105 
L 242.627735 -108.658148 
L 242.012975 -109.260059 
L 241.398215 -109.864835 
L 240.783454 -110.472478 
L 240.168694 -111.082986 
L 239.553934 -111.696361 
L 238.939174 -112.312603 
L 238.324414 -112.93171 
L 237.709653 -113.553684 
L 237.094893 -114.178524 
L 236.480133 -114.80623 
L 235.865373 -115.436803 
L 235.250612 -116.070242 
L 234.635852 -116.706547 
L 234.021092 -117.345718 
L 233.406332 -117.987755 
L 232.791572 -118.632659 
L 232.176811 -119.280429 
L 231.562051 -119.931065 
L 230.947291 -120.584568 
L 230.332531 -121.240936 
L 229.71777 -121.900171 
L 229.10301 -122.562272 
L 228.48825 -123.22724 
L 227.87349 -123.895073 
L 227.25873 -124.565773 
L 226.643969 -125.239339 
L 226.029209 -125.915772 
L 225.414449 -126.59507 
L 224.799689 -127.277235 
L 224.184929 -127.962266 
L 223.570168 -128.650163 
L 222.955408 -129.340927 
L 222.340648 -130.034557 
L 221.725888 -130.731053 
L 221.111127 -131.430415 
L 220.496367 -132.132643 
L 219.881607 -132.837738 
L 219.266847 -133.545699 
L 218.652087 -134.256526 
L 218.037326 -134.97022 
L 217.422566 -135.686779 
L 216.807806 -136.406205 
L 216.193046 -137.128497 
L 215.578286 -137.853656 
L 214.963525 -138.58168 
L 214.348765 -139.312571 
L 213.734005 -140.046328 
L 213.119245 -140.782952 
L 212.504484 -141.522441 
L 211.889724 -142.264797 
L 211.274964 -143.010019 
L 210.660204 -143.758108 
L 210.045444 -144.509062 
L 209.430683 -145.262883 
L 208.815923 -146.01957 
L 208.201163 -146.779123 
L 207.586403 -147.541543 
L 206.971643 -148.306828 
L 206.356882 -149.07498 
L 205.742122 -149.845999 
L 205.127362 -150.619883 
L 204.512602 -151.396634 
L 203.897841 -152.176251 
L 203.283081 -152.958734 
L 202.668321 -153.744083 
L 202.053561 -154.532299 
L 201.438801 -155.323381 
L 200.82404 -156.117329 
L 200.20928 -156.914143 
L 199.59452 -157.713824 
L 198.97976 -158.516371 
L 198.365 -159.321784 
L 197.750239 -160.130063 
L 197.135479 -160.941209 
L 196.520719 -161.75522 
L 195.905959 -162.572098 
L 195.291198 -163.391843 
L 194.676438 -164.214453 
L 194.061678 -165.03993 
L 193.446918 -165.868273 
L 192.832158 -166.699482 
L 192.217397 -167.533558 
L 191.602637 -168.370499 
L 190.987877 -169.210307 
L 190.373117 -170.052981 
L 189.758357 -170.898522 
L 189.143596 -171.746928 
L 188.528836 -172.598201 
L 187.914076 -173.452341 
L 187.299316 -174.309346 
L 186.684555 -175.169217 
L 186.069795 -176.031955 
L 185.455035 -176.897559 
L 184.840275 -177.76603 
L 184.225515 -178.637366 
L 183.610754 -179.511569 
L 182.995994 -180.388638 
L 182.381234 -181.268573 
L 181.766474 -182.151375 
L 181.151714 -183.037043 
L 180.536953 -183.925577 
L 179.922193 -184.816977 
L 179.307433 -185.711243 
L 178.692673 -186.608376 
L 178.077912 -187.508375 
L 177.463152 -188.41124 
L 176.848392 -189.316972 
L 176.233632 -190.225569 
L 175.618872 -191.137033 
L 175.004111 -192.051363 
L 174.389351 -192.96856 
L 173.774591 -193.888622 
L 173.159831 -194.811551 
L 172.545071 -195.737346 
L 171.93031 -196.666008 
L 171.31555 -197.597535 
L 170.70079 -198.531929 
L 170.08603 -199.469189 
L 169.471269 -200.409316 
L 168.856509 -201.352308 
L 168.241749 -202.298167 
L 167.626989 -203.246892 
L 167.012229 -204.198483 
L 166.397468 -205.152941 
L 165.782708 -206.110264 
L 165.167948 -207.070454 
L 164.553188 -208.03351 
L 163.938428 -208.999433 
L 163.323667 -209.968222 
L 162.708907 -210.939876 
L 162.094147 -211.914398 
L 161.479387 -212.891785 
L 160.864626 -213.872039 
L 160.249866 -214.855159 
L 159.635106 -215.841145 
L 159.020346 -216.829997 
L 158.405586 -217.821716 
L 157.790825 -218.8163 
L 157.176065 -219.813752 
L 156.561305 -220.814069 
z
" style="stroke: #808080; stroke-opacity: 0.5"/>
    </defs>
    <g clip-path="url(#p331c5fa878)">
     <use xlink:href="#m319f75495a" x="0" y="432" style="fill: #808080; fill-opacity: 0.5; stroke: #808080; stroke-opacity: 0.5"/>
    </g>
   </g>
   <g id="PolyCollection_2">
    <defs>
     <path id="mca79f82cc7" d="M 178.077912 -187.508375 
L 178.077912 -45.758182 
L 178.692673 -45.758182 
L 179.307433 -45.758182 
L 179.922193 -45.758182 
L 180.536953 -45.758182 
L 181.151714 -45.758182 
L 181.766474 -45.758182 
L 182.381234 -45.758182 
L 182.995994 -45.758182 
L 183.610754 -45.758182 
L 184.225515 -45.758182 
L 184.840275 -45.758182 
L 185.455035 -45.758182 
L 186.069795 -45.758182 
L 186.684555 -45.758182 
L 187.299316 -45.758182 
L 187.914076 -45.758182 
L 188.528836 -45.758182 
L 189.143596 -45.758182 
L 189.758357 -45.758182 
L 190.373117 -45.758182 
L 190.987877 -45.758182 
L 191.602637 -45.758182 
L 192.217397 -45.758182 
L 192.832158 -45.758182 
L 193.446918 -45.758182 
L 194.061678 -45.758182 
L 194.676438 -45.758182 
L 195.291198 -45.758182 
L 195.905959 -45.758182 
L 196.520719 -45.758182 
L 197.135479 -45.758182 
L 197.750239 -45.758182 
L 198.365 -45.758182 
L 198.97976 -45.758182 
L 199.59452 -45.758182 
L 200.20928 -45.758182 
L 200.82404 -45.758182 
L 201.438801 -45.758182 
L 202.053561 -45.758182 
L 202.668321 -45.758182 
L 203.283081 -45.758182 
L 203.897841 -45.758182 
L 204.512602 -45.758182 
L 205.127362 -45.758182 
L 205.742122 -45.758182 
L 206.356882 -45.758182 
L 206.971643 -45.758182 
L 207.586403 -45.758182 
L 208.201163 -45.758182 
L 208.815923 -45.758182 
L 209.430683 -45.758182 
L 210.045444 -45.758182 
L 210.660204 -45.758182 
L 211.274964 -45.758182 
L 211.889724 -45.758182 
L 212.504484 -45.758182 
L 213.119245 -45.758182 
L 213.734005 -45.758182 
L 214.348765 -45.758182 
L 214.963525 -45.758182 
L 215.578286 -45.758182 
L 216.193046 -45.758182 
L 216.807806 -45.758182 
L 217.422566 -45.758182 
L 218.037326 -45.758182 
L 218.652087 -45.758182 
L 219.266847 -45.758182 
L 219.881607 -45.758182 
L 220.496367 -45.758182 
L 221.111127 -45.758182 
L 221.725888 -45.758182 
L 222.340648 -45.758182 
L 222.955408 -45.758182 
L 223.570168 -45.758182 
L 224.184929 -45.758182 
L 224.799689 -45.758182 
L 225.414449 -45.758182 
L 226.029209 -45.758182 
L 226.643969 -45.758182 
L 227.25873 -45.758182 
L 227.87349 -45.758182 
L 228.48825 -45.758182 
L 229.10301 -45.758182 
L 229.71777 -45.758182 
L 230.332531 -45.758182 
L 230.947291 -45.758182 
L 231.562051 -45.758182 
L 232.176811 -45.758182 
L 232.791572 -45.758182 
L 233.406332 -45.758182 
L 234.021092 -45.758182 
L 234.635852 -45.758182 
L 235.250612 -45.758182 
L 235.865373 -45.758182 
L 236.480133 -45.758182 
L 237.094893 -45.758182 
L 237.709653 -45.758182 
L 238.324414 -45.758182 
L 238.939174 -45.758182 
L 239.553934 -45.758182 
L 240.168694 -45.758182 
L 240.783454 -45.758182 
L 241.398215 -45.758182 
L 242.012975 -45.758182 
L 242.627735 -45.758182 
L 243.242495 -45.758182 
L 243.857255 -45.758182 
L 244.472016 -45.758182 
L 245.086776 -45.758182 
L 245.701536 -45.758182 
L 246.316296 -45.758182 
L 246.931057 -45.758182 
L 247.545817 -45.758182 
L 248.160577 -45.758182 
L 248.775337 -45.758182 
L 249.390097 -45.758182 
L 250.004858 -45.758182 
L 250.619618 -45.758182 
L 251.234378 -45.758182 
L 251.849138 -45.758182 
L 252.463898 -45.758182 
L 253.078659 -45.758182 
L 253.693419 -45.758182 
L 254.308179 -45.758182 
L 254.922939 -45.758182 
L 255.5377 -45.758182 
L 256.15246 -45.758182 
L 256.76722 -45.758182 
L 257.38198 -45.758182 
L 257.99674 -45.758182 
L 258.611501 -45.758182 
L 259.226261 -45.758182 
L 259.841021 -45.758182 
L 260.455781 -45.758182 
L 261.070541 -45.758182 
L 261.685302 -45.758182 
L 262.300062 -45.758182 
L 262.914822 -45.758182 
L 263.529582 -45.758182 
L 264.144343 -45.758182 
L 264.759103 -45.758182 
L 265.373863 -45.758182 
L 265.988623 -45.758182 
L 266.603383 -45.758182 
L 267.218144 -45.758182 
L 267.832904 -45.758182 
L 268.447664 -45.758182 
L 269.062424 -45.758182 
L 269.677184 -45.758182 
L 270.291945 -45.758182 
L 270.906705 -45.758182 
L 271.521465 -45.758182 
L 272.136225 -45.758182 
L 272.750986 -45.758182 
L 273.365746 -45.758182 
L 273.980506 -45.758182 
L 274.595266 -45.758182 
L 275.210026 -45.758182 
L 275.824787 -45.758182 
L 276.439547 -45.758182 
L 277.054307 -45.758182 
L 277.669067 -45.758182 
L 278.283827 -45.758182 
L 278.898588 -45.758182 
L 279.513348 -45.758182 
L 280.128108 -45.758182 
L 280.742868 -45.758182 
L 281.357629 -45.758182 
L 281.972389 -45.758182 
L 282.587149 -45.758182 
L 283.201909 -45.758182 
L 283.816669 -45.758182 
L 284.43143 -45.758182 
L 285.04619 -45.758182 
L 285.66095 -45.758182 
L 286.27571 -45.758182 
L 286.89047 -45.758182 
L 287.505231 -45.758182 
L 288.119991 -45.758182 
L 288.734751 -45.758182 
L 289.349511 -45.758182 
L 289.964272 -45.758182 
L 290.579032 -45.758182 
L 291.193792 -45.758182 
L 291.808552 -45.758182 
L 292.423312 -45.758182 
L 293.038073 -45.758182 
L 293.652833 -45.758182 
L 294.267593 -45.758182 
L 294.882353 -45.758182 
L 295.497113 -45.758182 
L 296.111874 -45.758182 
L 296.726634 -45.758182 
L 297.341394 -45.758182 
L 297.956154 -45.758182 
L 298.570915 -45.758182 
L 299.185675 -45.758182 
L 299.800435 -45.758182 
L 300.415195 -45.758182 
L 301.029955 -45.758182 
L 301.644716 -45.758182 
L 302.259476 -45.758182 
L 302.874236 -45.758182 
L 303.488996 -45.758182 
L 304.103756 -45.758182 
L 304.718517 -45.758182 
L 305.333277 -45.758182 
L 305.948037 -45.758182 
L 306.562797 -45.758182 
L 307.177558 -45.758182 
L 307.792318 -45.758182 
L 308.407078 -45.758182 
L 309.021838 -45.758182 
L 309.636598 -45.758182 
L 310.251359 -45.758182 
L 310.866119 -45.758182 
L 311.480879 -45.758182 
L 312.095639 -45.758182 
L 312.710399 -45.758182 
L 313.32516 -45.758182 
L 313.93992 -45.758182 
L 314.55468 -45.758182 
L 315.16944 -45.758182 
L 315.784201 -45.758182 
L 316.398961 -45.758182 
L 317.013721 -45.758182 
L 317.628481 -45.758182 
L 318.243241 -45.758182 
L 318.858002 -45.758182 
L 319.472762 -45.758182 
L 320.087522 -45.758182 
L 320.702282 -45.758182 
L 321.317042 -45.758182 
L 321.931803 -45.758182 
L 322.546563 -45.758182 
L 323.161323 -45.758182 
L 323.776083 -45.758182 
L 324.390844 -45.758182 
L 325.005604 -45.758182 
L 325.620364 -45.758182 
L 326.235124 -45.758182 
L 326.849884 -45.758182 
L 327.464645 -45.758182 
L 328.079405 -45.758182 
L 328.694165 -45.758182 
L 329.308925 -45.758182 
L 329.923686 -45.758182 
L 330.538446 -45.758182 
L 331.153206 -45.758182 
L 331.767966 -45.758182 
L 332.382726 -45.758182 
L 332.997487 -45.758182 
L 333.612247 -45.758182 
L 334.227007 -45.758182 
L 334.841767 -45.758182 
L 335.456527 -45.758182 
L 336.071288 -45.758182 
L 336.686048 -45.758182 
L 337.300808 -45.758182 
L 337.915568 -45.758182 
L 338.530329 -45.758182 
L 339.145089 -45.758182 
L 339.759849 -45.758182 
L 340.374609 -45.758182 
L 340.989369 -45.758182 
L 341.60413 -45.758182 
L 342.21889 -45.758182 
L 342.83365 -45.758182 
L 343.44841 -45.758182 
L 344.06317 -45.758182 
L 344.677931 -45.758182 
L 345.292691 -45.758182 
L 345.907451 -45.758182 
L 346.522211 -45.758182 
L 347.136972 -45.758182 
L 347.751732 -45.758182 
L 348.366492 -45.758182 
L 348.981252 -45.758182 
L 349.596012 -45.758182 
L 350.210773 -45.758182 
L 350.825533 -45.758182 
L 351.440293 -45.758182 
L 352.055053 -45.758182 
L 352.669813 -45.758182 
L 353.284574 -45.758182 
L 353.899334 -45.758182 
L 354.514094 -45.758182 
L 355.128854 -45.758182 
L 355.743615 -45.758182 
L 356.358375 -45.758182 
L 356.973135 -45.758182 
L 357.587895 -45.758182 
L 358.202655 -45.758182 
L 358.817416 -45.758182 
L 359.432176 -45.758182 
L 360.046936 -45.758182 
L 360.661696 -45.758182 
L 361.276456 -45.758182 
L 361.891217 -45.758182 
L 362.505977 -45.758182 
L 363.120737 -45.758182 
L 363.735497 -45.758182 
L 364.350258 -45.758182 
L 364.965018 -45.758182 
L 365.579778 -45.758182 
L 366.194538 -45.758182 
L 366.809298 -45.758182 
L 367.424059 -45.758182 
L 368.038819 -45.758182 
L 368.653579 -45.758182 
L 369.268339 -45.758182 
L 369.883099 -45.758182 
L 370.49786 -45.758182 
L 371.11262 -45.758182 
L 371.72738 -45.758182 
L 372.34214 -45.758182 
L 372.956901 -45.758182 
L 373.571661 -45.758182 
L 374.186421 -45.758182 
L 374.801181 -45.758182 
L 375.415941 -45.758182 
L 376.030702 -45.758182 
L 376.645462 -45.758182 
L 377.260222 -45.758182 
L 377.874982 -45.758182 
L 378.489742 -45.758182 
L 379.104503 -45.758182 
L 379.719263 -45.758182 
L 380.334023 -45.758182 
L 380.948783 -45.758182 
L 381.563544 -45.758182 
L 382.178304 -45.758182 
L 382.793064 -45.758182 
L 383.407824 -45.758182 
L 384.022584 -45.758182 
L 384.637345 -45.758182 
L 385.252105 -45.758182 
L 385.866865 -45.758182 
L 386.481625 -45.758182 
L 387.096385 -45.758182 
L 387.711146 -45.758182 
L 388.325906 -45.758182 
L 388.940666 -45.758182 
L 389.555426 -45.758182 
L 390.170187 -45.758182 
L 390.784947 -45.758182 
L 391.399707 -45.758182 
L 392.014467 -45.758182 
L 392.629227 -45.758182 
L 393.243988 -45.758182 
L 393.858748 -45.758182 
L 394.473508 -45.758182 
L 395.088268 -45.758182 
L 395.703028 -45.758182 
L 396.317789 -45.758182 
L 396.932549 -45.758182 
L 397.547309 -45.758182 
L 398.162069 -45.758182 
L 398.77683 -45.758182 
L 399.39159 -45.758182 
L 400.00635 -45.758182 
L 400.62111 -45.758182 
L 401.23587 -45.758182 
L 401.850631 -45.758182 
L 402.465391 -45.758182 
L 403.080151 -45.758182 
L 403.694911 -45.758182 
L 404.309671 -45.758182 
L 404.924432 -45.758182 
L 405.539192 -45.758182 
L 406.153952 -45.758182 
L 406.768712 -45.758182 
L 407.383473 -45.758182 
L 407.998233 -45.758182 
L 408.612993 -45.758182 
L 409.227753 -45.758182 
L 409.842513 -45.758182 
L 410.457274 -45.758182 
L 411.072034 -45.758182 
L 411.686794 -45.758182 
L 412.301554 -45.758182 
L 412.916314 -45.758182 
L 413.531075 -45.758182 
L 414.145835 -45.758182 
L 414.760595 -45.758182 
L 415.375355 -45.758182 
L 415.990116 -45.758182 
L 416.604876 -45.758182 
L 417.219636 -45.758182 
L 417.834396 -45.758182 
L 418.449156 -45.758182 
L 419.063917 -45.758182 
L 419.678677 -45.758182 
L 420.293437 -45.758182 
L 420.908197 -45.758182 
L 421.522958 -45.758182 
L 422.137718 -45.758182 
L 422.752478 -45.758182 
L 423.367238 -45.758182 
L 423.981998 -45.758182 
L 424.596759 -45.758182 
L 425.211519 -45.758182 
L 425.826279 -45.758182 
L 426.441039 -45.758182 
L 427.055799 -45.758182 
L 427.67056 -45.758182 
L 428.28532 -45.758182 
L 428.90008 -45.758182 
L 429.51484 -45.758182 
L 430.129601 -45.758182 
L 430.744361 -45.758182 
L 431.359121 -45.758182 
L 431.973881 -45.758182 
L 432.588641 -45.758182 
L 433.203402 -45.758182 
L 433.818162 -45.758182 
L 434.432922 -45.758182 
L 435.047682 -45.758182 
L 435.662442 -45.758182 
L 436.277203 -45.758182 
L 436.891963 -45.758182 
L 437.506723 -45.758182 
L 438.121483 -45.758182 
L 438.736244 -45.758182 
L 439.351004 -45.758182 
L 439.965764 -45.758182 
L 440.580524 -45.758182 
L 441.195284 -45.758182 
L 441.810045 -45.758182 
L 442.424805 -45.758182 
L 443.039565 -45.758182 
L 443.654325 -45.758182 
L 444.269085 -45.758182 
L 444.883846 -45.758182 
L 445.498606 -45.758182 
L 446.113366 -45.758182 
L 446.728126 -45.758182 
L 447.342887 -45.758182 
L 447.957647 -45.758182 
L 448.572407 -45.758182 
L 449.187167 -45.758182 
L 449.801927 -45.758182 
L 450.416688 -45.758182 
L 451.031448 -45.758182 
L 451.646208 -45.758182 
L 452.260968 -45.758182 
L 452.875728 -45.758182 
L 453.490489 -45.758182 
L 454.105249 -45.758182 
L 454.720009 -45.758182 
L 455.334769 -45.758182 
L 455.94953 -45.758182 
L 456.56429 -45.758182 
L 457.17905 -45.758182 
L 457.79381 -45.758182 
L 458.40857 -45.758182 
L 459.023331 -45.758182 
L 459.638091 -45.758182 
L 460.252851 -45.758182 
L 460.867611 -45.758182 
L 461.482371 -45.758182 
L 462.097132 -45.758182 
L 462.711892 -45.758182 
L 463.326652 -45.758182 
L 463.941412 -45.758182 
L 464.556173 -45.758182 
L 465.170933 -45.758182 
L 465.785693 -45.758182 
L 466.400453 -45.758182 
L 467.015213 -45.758182 
L 467.629974 -45.758182 
L 468.244734 -45.758182 
L 468.859494 -45.758182 
L 469.474254 -45.758182 
L 470.089014 -45.758182 
L 470.703775 -45.758182 
L 471.318535 -45.758182 
L 471.933295 -45.758182 
L 472.548055 -45.758182 
L 473.162816 -45.758182 
L 473.777576 -45.758182 
L 474.392336 -45.758182 
L 475.007096 -45.758182 
L 475.621856 -45.758182 
L 476.236617 -45.758182 
L 476.851377 -45.758182 
L 477.466137 -45.758182 
L 478.080897 -45.758182 
L 478.695657 -45.758182 
L 479.310418 -45.758182 
L 479.925178 -45.758182 
L 480.539938 -45.758182 
L 481.154698 -45.758182 
L 481.769459 -45.758182 
L 482.384219 -45.758182 
L 482.998979 -45.758182 
L 483.613739 -45.758182 
L 484.228499 -45.758182 
L 484.84326 -45.758182 
L 485.45802 -45.758182 
L 486.07278 -45.758182 
L 486.68754 -45.758182 
L 487.3023 -45.758182 
L 487.917061 -45.758182 
L 488.531821 -45.758182 
L 489.146581 -45.758182 
L 489.761341 -45.758182 
L 490.376102 -45.758182 
L 490.990862 -45.758182 
L 491.605622 -45.758182 
L 492.220382 -45.758182 
L 492.835142 -45.758182 
L 493.449903 -45.758182 
L 494.064663 -45.758182 
L 494.679423 -45.758182 
L 495.294183 -45.758182 
L 495.908943 -45.758182 
L 496.523704 -45.758182 
L 497.138464 -45.758182 
L 497.753224 -45.758182 
L 498.367984 -45.758182 
L 498.982745 -45.758182 
L 499.597505 -45.758182 
L 500.212265 -45.758182 
L 500.827025 -45.758182 
L 501.441785 -45.758182 
L 502.056546 -45.758182 
L 502.671306 -45.758182 
L 503.286066 -45.758182 
L 503.900826 -45.758182 
L 504.515586 -45.758182 
L 505.130347 -45.758182 
L 505.745107 -45.758182 
L 506.359867 -45.758182 
L 506.974627 -45.758182 
L 507.589388 -45.758182 
L 508.204148 -45.758182 
L 508.818908 -45.758182 
L 509.433668 -45.758182 
L 510.048428 -45.758182 
L 510.663189 -45.758182 
L 511.277949 -45.758182 
L 511.892709 -45.758182 
L 512.507469 -45.758182 
L 513.12223 -45.758182 
L 513.73699 -45.758182 
L 514.35175 -45.758182 
L 514.96651 -45.758182 
L 515.58127 -45.758182 
L 516.196031 -45.758182 
L 516.810791 -45.758182 
L 517.425551 -45.758182 
L 518.040311 -45.758182 
L 518.655071 -45.758182 
L 519.269832 -45.758182 
L 519.884592 -45.758182 
L 520.499352 -45.758182 
L 521.114112 -45.758182 
L 521.728873 -45.758182 
L 522.343633 -45.758182 
L 522.958393 -45.758182 
L 523.573153 -45.758182 
L 524.187913 -45.758182 
L 524.802674 -45.758182 
L 525.417434 -45.758182 
L 526.032194 -45.758182 
L 526.646954 -45.758182 
L 527.261714 -45.758182 
L 527.876475 -45.758182 
L 528.491235 -45.758182 
L 529.105995 -45.758182 
L 529.720755 -45.758182 
L 530.335516 -45.758182 
L 530.950276 -45.758182 
L 531.565036 -45.758182 
L 532.179796 -45.758182 
L 532.794556 -45.758182 
L 533.409317 -45.758182 
L 534.024077 -45.758182 
L 534.638837 -45.758182 
L 535.253597 -45.758182 
L 535.868357 -45.758182 
L 536.483118 -45.758182 
L 537.097878 -45.758182 
L 537.712638 -45.758182 
L 538.327398 -45.758182 
L 538.942159 -45.758182 
L 539.556919 -45.758182 
L 540.171679 -45.758182 
L 540.786439 -45.758182 
L 541.401199 -45.758182 
L 542.01596 -45.758182 
L 542.63072 -45.758182 
L 543.24548 -45.758182 
L 543.86024 -45.758182 
L 544.475 -45.758182 
L 545.089761 -45.758182 
L 545.704521 -45.758182 
L 546.319281 -45.758182 
L 546.934041 -45.758182 
L 547.548802 -45.758182 
L 548.163562 -45.758182 
L 548.778322 -45.758182 
L 549.393082 -45.758182 
L 550.007842 -45.758182 
L 550.622603 -45.758182 
L 551.237363 -45.758182 
L 551.852123 -45.758182 
L 552.466883 -45.758182 
L 553.081643 -45.758182 
L 553.696404 -45.758182 
L 554.311164 -45.758182 
L 554.925924 -45.758182 
L 555.540684 -45.758182 
L 556.155445 -45.758182 
L 556.770205 -45.758182 
L 557.384965 -45.758182 
L 557.999725 -45.758182 
L 558.614485 -45.758182 
L 559.229246 -45.758182 
L 559.844006 -45.758182 
L 560.458766 -45.758182 
L 561.073526 -45.758182 
L 561.688286 -45.758182 
L 562.303047 -45.758182 
L 562.917807 -45.758182 
L 563.532567 -45.758182 
L 564.147327 -45.758182 
L 564.762088 -45.758182 
L 564.762088 -187.508375 
L 564.762088 -187.508375 
L 564.147327 -186.608376 
L 563.532567 -185.711243 
L 562.917807 -184.816977 
L 562.303047 -183.925577 
L 561.688286 -183.037043 
L 561.073526 -182.151375 
L 560.458766 -181.268573 
L 559.844006 -180.388638 
L 559.229246 -179.511569 
L 558.614485 -178.637366 
L 557.999725 -177.76603 
L 557.384965 -176.897559 
L 556.770205 -176.031955 
L 556.155445 -175.169217 
L 555.540684 -174.309346 
L 554.925924 -173.452341 
L 554.311164 -172.598201 
L 553.696404 -171.746928 
L 553.081643 -170.898522 
L 552.466883 -170.052981 
L 551.852123 -169.210307 
L 551.237363 -168.370499 
L 550.622603 -167.533558 
L 550.007842 -166.699482 
L 549.393082 -165.868273 
L 548.778322 -165.03993 
L 548.163562 -164.214453 
L 547.548802 -163.391843 
L 546.934041 -162.572098 
L 546.319281 -161.75522 
L 545.704521 -160.941209 
L 545.089761 -160.130063 
L 544.475 -159.321784 
L 543.86024 -158.516371 
L 543.24548 -157.713824 
L 542.63072 -156.914143 
L 542.01596 -156.117329 
L 541.401199 -155.323381 
L 540.786439 -154.532299 
L 540.171679 -153.744083 
L 539.556919 -152.958734 
L 538.942159 -152.176251 
L 538.327398 -151.396634 
L 537.712638 -150.619883 
L 537.097878 -149.845999 
L 536.483118 -149.07498 
L 535.868357 -148.306828 
L 535.253597 -147.541543 
L 534.638837 -146.779123 
L 534.024077 -146.01957 
L 533.409317 -145.262883 
L 532.794556 -144.509062 
L 532.179796 -143.758108 
L 531.565036 -143.010019 
L 530.950276 -142.264797 
L 530.335516 -141.522441 
L 529.720755 -140.782952 
L 529.105995 -140.046328 
L 528.491235 -139.312571 
L 527.876475 -138.58168 
L 527.261714 -137.853656 
L 526.646954 -137.128497 
L 526.032194 -136.406205 
L 525.417434 -135.686779 
L 524.802674 -134.97022 
L 524.187913 -134.256526 
L 523.573153 -133.545699 
L 522.958393 -132.837738 
L 522.343633 -132.132643 
L 521.728873 -131.430415 
L 521.114112 -130.731053 
L 520.499352 -130.034557 
L 519.884592 -129.340927 
L 519.269832 -128.650163 
L 518.655071 -127.962266 
L 518.040311 -127.277235 
L 517.425551 -126.59507 
L 516.810791 -125.915772 
L 516.196031 -125.239339 
L 515.58127 -124.565773 
L 514.96651 -123.895073 
L 514.35175 -123.22724 
L 513.73699 -122.562272 
L 513.12223 -121.900171 
L 512.507469 -121.240936 
L 511.892709 -120.584568 
L 511.277949 -119.931065 
L 510.663189 -119.280429 
L 510.048428 -118.632659 
L 509.433668 -117.987755 
L 508.818908 -117.345718 
L 508.204148 -116.706547 
L 507.589388 -116.070242 
L 506.974627 -115.436803 
L 506.359867 -114.80623 
L 505.745107 -114.178524 
L 505.130347 -113.553684 
L 504.515586 -112.93171 
L 503.900826 -112.312603 
L 503.286066 -111.696361 
L 502.671306 -111.082986 
L 502.056546 -110.472478 
L 501.441785 -109.864835 
L 500.827025 -109.260059 
L 500.212265 -108.658148 
L 499.597505 -108.059105 
L 498.982745 -107.462927 
L 498.367984 -106.869615 
L 497.753224 -106.27917 
L 497.138464 -105.691591 
L 496.523704 -105.106879 
L 495.908943 -104.525032 
L 495.294183 -103.946052 
L 494.679423 -103.369938 
L 494.064663 -102.79669 
L 493.449903 -102.226309 
L 492.835142 -101.658794 
L 492.220382 -101.094144 
L 491.605622 -100.532362 
L 490.990862 -99.973445 
L 490.376102 -99.417395 
L 489.761341 -98.864211 
L 489.146581 -98.313893 
L 488.531821 -97.766441 
L 487.917061 -97.221856 
L 487.3023 -96.680137 
L 486.68754 -96.141284 
L 486.07278 -95.605297 
L 485.45802 -95.072177 
L 484.84326 -94.541923 
L 484.228499 -94.014535 
L 483.613739 -93.490013 
L 482.998979 -92.968358 
L 482.384219 -92.449569 
L 481.769459 -91.933646 
L 481.154698 -91.420589 
L 480.539938 -90.910398 
L 479.925178 -90.403074 
L 479.310418 -89.898616 
L 478.695657 -89.397024 
L 478.080897 -88.898299 
L 477.466137 -88.40244 
L 476.851377 -87.909446 
L 476.236617 -87.41932 
L 475.621856 -86.932059 
L 475.007096 -86.447665 
L 474.392336 -85.966137 
L 473.777576 -85.487475 
L 473.162816 -85.011679 
L 472.548055 -84.53875 
L 471.933295 -84.068687 
L 471.318535 -83.60149 
L 470.703775 -83.137159 
L 470.089014 -82.675695 
L 469.474254 -82.217096 
L 468.859494 -81.761364 
L 468.244734 -81.308499 
L 467.629974 -80.858499 
L 467.015213 -80.411366 
L 466.400453 -79.967099 
L 465.785693 -79.525698 
L 465.170933 -79.087164 
L 464.556173 -78.651495 
L 463.941412 -78.218693 
L 463.326652 -77.788758 
L 462.711892 -77.361688 
L 462.097132 -76.937485 
L 461.482371 -76.516148 
L 460.867611 -76.097677 
L 460.252851 -75.682072 
L 459.638091 -75.269334 
L 459.023331 -74.859462 
L 458.40857 -74.452456 
L 457.79381 -74.048316 
L 457.17905 -73.647043 
L 456.56429 -73.248635 
L 455.94953 -72.853095 
L 455.334769 -72.46042 
L 454.720009 -72.070611 
L 454.105249 -71.683669 
L 453.490489 -71.299593 
L 452.875728 -70.918383 
L 452.260968 -70.54004 
L 451.646208 -70.164563 
L 451.031448 -69.791952 
L 450.416688 -69.422207 
L 449.801927 -69.055328 
L 449.187167 -68.691316 
L 448.572407 -68.33017 
L 447.957647 -67.97189 
L 447.342887 -67.616476 
L 446.728126 -67.263929 
L 446.113366 -66.914248 
L 445.498606 -66.567433 
L 444.883846 -66.223484 
L 444.269085 -65.882402 
L 443.654325 -65.544186 
L 443.039565 -65.208836 
L 442.424805 -64.876352 
L 441.810045 -64.546735 
L 441.195284 -64.219984 
L 440.580524 -63.896099 
L 439.965764 -63.57508 
L 439.351004 -63.256927 
L 438.736244 -62.941641 
L 438.121483 -62.629221 
L 437.506723 -62.319667 
L 436.891963 -62.01298 
L 436.277203 -61.709158 
L 435.662442 -61.408203 
L 435.047682 -61.110115 
L 434.432922 -60.814892 
L 433.818162 -60.522536 
L 433.203402 -60.233046 
L 432.588641 -59.946422 
L 431.973881 -59.662664 
L 431.359121 -59.381773 
L 430.744361 -59.103747 
L 430.129601 -58.828589 
L 429.51484 -58.556296 
L 428.90008 -58.286869 
L 428.28532 -58.020309 
L 427.67056 -57.756615 
L 427.055799 -57.495788 
L 426.441039 -57.237826 
L 425.826279 -56.982731 
L 425.211519 -56.730502 
L 424.596759 -56.481139 
L 423.981998 -56.234643 
L 423.367238 -55.991012 
L 422.752478 -55.750248 
L 422.137718 -55.51235 
L 421.522958 -55.277319 
L 420.908197 -55.045153 
L 420.293437 -54.815854 
L 419.678677 -54.589422 
L 419.063917 -54.365855 
L 418.449156 -54.145155 
L 417.834396 -53.92732 
L 417.219636 -53.712352 
L 416.604876 -53.500251 
L 415.990116 -53.291015 
L 415.375355 -53.084646 
L 414.760595 -52.881143 
L 414.145835 -52.680507 
L 413.531075 -52.482736 
L 412.916314 -52.287832 
L 412.301554 -52.095794 
L 411.686794 -51.906622 
L 411.072034 -51.720317 
L 410.457274 -51.536877 
L 409.842513 -51.356304 
L 409.227753 -51.178597 
L 408.612993 -51.003757 
L 407.998233 -50.831783 
L 407.383473 -50.662675 
L 406.768712 -50.496433 
L 406.153952 -50.333057 
L 405.539192 -50.172548 
L 404.924432 -50.014905 
L 404.309671 -49.860128 
L 403.694911 -49.708217 
L 403.080151 -49.559173 
L 402.465391 -49.412994 
L 401.850631 -49.269683 
L 401.23587 -49.129237 
L 400.62111 -48.991657 
L 400.00635 -48.856944 
L 399.39159 -48.725097 
L 398.77683 -48.596116 
L 398.162069 -48.470002 
L 397.547309 -48.346754 
L 396.932549 -48.226372 
L 396.317789 -48.108856 
L 395.703028 -47.994206 
L 395.088268 -47.882423 
L 394.473508 -47.773506 
L 393.858748 -47.667455 
L 393.243988 -47.56427 
L 392.629227 -47.463952 
L 392.014467 -47.3665 
L 391.399707 -47.271914 
L 390.784947 -47.180194 
L 390.170187 -47.091341 
L 389.555426 -47.005354 
L 388.940666 -46.922233 
L 388.325906 -46.841978 
L 387.711146 -46.76459 
L 387.096385 -46.690068 
L 386.481625 -46.618412 
L 385.866865 -46.549622 
L 385.252105 -46.483698 
L 384.637345 -46.420641 
L 384.022584 -46.36045 
L 383.407824 -46.303125 
L 382.793064 -46.248667 
L 382.178304 -46.197075 
L 381.563544 -46.148349 
L 380.948783 -46.102489 
L 380.334023 -46.059495 
L 379.719263 -46.019368 
L 379.104503 -45.982107 
L 378.489742 -45.947712 
L 377.874982 -45.916183 
L 377.260222 -45.887521 
L 376.645462 -45.861725 
L 376.030702 -45.838795 
L 375.415941 -45.818731 
L 374.801181 -45.801534 
L 374.186421 -45.787202 
L 373.571661 -45.775738 
L 372.956901 -45.767139 
L 372.34214 -45.761406 
L 371.72738 -45.75854 
L 371.11262 -45.75854 
L 370.49786 -45.761406 
L 369.883099 -45.767139 
L 369.268339 -45.775738 
L 368.653579 -45.787202 
L 368.038819 -45.801534 
L 367.424059 -45.818731 
L 366.809298 -45.838795 
L 366.194538 -45.861725 
L 365.579778 -45.887521 
L 364.965018 -45.916183 
L 364.350258 -45.947712 
L 363.735497 -45.982107 
L 363.120737 -46.019368 
L 362.505977 -46.059495 
L 361.891217 -46.102489 
L 361.276456 -46.148349 
L 360.661696 -46.197075 
L 360.046936 -46.248667 
L 359.432176 -46.303125 
L 358.817416 -46.36045 
L 358.202655 -46.420641 
L 357.587895 -46.483698 
L 356.973135 -46.549622 
L 356.358375 -46.618412 
L 355.743615 -46.690068 
L 355.128854 -46.76459 
L 354.514094 -46.841978 
L 353.899334 -46.922233 
L 353.284574 -47.005354 
L 352.669813 -47.091341 
L 352.055053 -47.180194 
L 351.440293 -47.271914 
L 350.825533 -47.3665 
L 350.210773 -47.463952 
L 349.596012 -47.56427 
L 348.981252 -47.667455 
L 348.366492 -47.773506 
L 347.751732 -47.882423 
L 347.136972 -47.994206 
L 346.522211 -48.108856 
L 345.907451 -48.226372 
L 345.292691 -48.346754 
L 344.677931 -48.470002 
L 344.06317 -48.596116 
L 343.44841 -48.725097 
L 342.83365 -48.856944 
L 342.21889 -48.991657 
L 341.60413 -49.129237 
L 340.989369 -49.269683 
L 340.374609 -49.412994 
L 339.759849 -49.559173 
L 339.145089 -49.708217 
L 338.530329 -49.860128 
L 337.915568 -50.014905 
L 337.300808 -50.172548 
L 336.686048 -50.333057 
L 336.071288 -50.496433 
L 335.456527 -50.662675 
L 334.841767 -50.831783 
L 334.227007 -51.003757 
L 333.612247 -51.178597 
L 332.997487 -51.356304 
L 332.382726 -51.536877 
L 331.767966 -51.720317 
L 331.153206 -51.906622 
L 330.538446 -52.095794 
L 329.923686 -52.287832 
L 329.308925 -52.482736 
L 328.694165 -52.680507 
L 328.079405 -52.881143 
L 327.464645 -53.084646 
L 326.849884 -53.291015 
L 326.235124 -53.500251 
L 325.620364 -53.712352 
L 325.005604 -53.92732 
L 324.390844 -54.145155 
L 323.776083 -54.365855 
L 323.161323 -54.589422 
L 322.546563 -54.815854 
L 321.931803 -55.045153 
L 321.317042 -55.277319 
L 320.702282 -55.51235 
L 320.087522 -55.750248 
L 319.472762 -55.991012 
L 318.858002 -56.234643 
L 318.243241 -56.481139 
L 317.628481 -56.730502 
L 317.013721 -56.982731 
L 316.398961 -57.237826 
L 315.784201 -57.495788 
L 315.16944 -57.756615 
L 314.55468 -58.020309 
L 313.93992 -58.286869 
L 313.32516 -58.556296 
L 312.710399 -58.828589 
L 312.095639 -59.103747 
L 311.480879 -59.381773 
L 310.866119 -59.662664 
L 310.251359 -59.946422 
L 309.636598 -60.233046 
L 309.021838 -60.522536 
L 308.407078 -60.814892 
L 307.792318 -61.110115 
L 307.177558 -61.408203 
L 306.562797 -61.709158 
L 305.948037 -62.01298 
L 305.333277 -62.319667 
L 304.718517 -62.629221 
L 304.103756 -62.941641 
L 303.488996 -63.256927 
L 302.874236 -63.57508 
L 302.259476 -63.896099 
L 301.644716 -64.219984 
L 301.029955 -64.546735 
L 300.415195 -64.876352 
L 299.800435 -65.208836 
L 299.185675 -65.544186 
L 298.570915 -65.882402 
L 297.956154 -66.223484 
L 297.341394 -66.567433 
L 296.726634 -66.914248 
L 296.111874 -67.263929 
L 295.497113 -67.616476 
L 294.882353 -67.97189 
L 294.267593 -68.33017 
L 293.652833 -68.691316 
L 293.038073 -69.055328 
L 292.423312 -69.422207 
L 291.808552 -69.791952 
L 291.193792 -70.164563 
L 290.579032 -70.54004 
L 289.964272 -70.918383 
L 289.349511 -71.299593 
L 288.734751 -71.683669 
L 288.119991 -72.070611 
L 287.505231 -72.46042 
L 286.89047 -72.853095 
L 286.27571 -73.248635 
L 285.66095 -73.647043 
L 285.04619 -74.048316 
L 284.43143 -74.452456 
L 283.816669 -74.859462 
L 283.201909 -75.269334 
L 282.587149 -75.682072 
L 281.972389 -76.097677 
L 281.357629 -76.516148 
L 280.742868 -76.937485 
L 280.128108 -77.361688 
L 279.513348 -77.788758 
L 278.898588 -78.218693 
L 278.283827 -78.651495 
L 277.669067 -79.087164 
L 277.054307 -79.525698 
L 276.439547 -79.967099 
L 275.824787 -80.411366 
L 275.210026 -80.858499 
L 274.595266 -81.308499 
L 273.980506 -81.761364 
L 273.365746 -82.217096 
L 272.750986 -82.675695 
L 272.136225 -83.137159 
L 271.521465 -83.60149 
L 270.906705 -84.068687 
L 270.291945 -84.53875 
L 269.677184 -85.011679 
L 269.062424 -85.487475 
L 268.447664 -85.966137 
L 267.832904 -86.447665 
L 267.218144 -86.932059 
L 266.603383 -87.41932 
L 265.988623 -87.909446 
L 265.373863 -88.40244 
L 264.759103 -88.898299 
L 264.144343 -89.397024 
L 263.529582 -89.898616 
L 262.914822 -90.403074 
L 262.300062 -90.910398 
L 261.685302 -91.420589 
L 261.070541 -91.933646 
L 260.455781 -92.449569 
L 259.841021 -92.968358 
L 259.226261 -93.490013 
L 258.611501 -94.014535 
L 257.99674 -94.541923 
L 257.38198 -95.072177 
L 256.76722 -95.605297 
L 256.15246 -96.141284 
L 255.5377 -96.680137 
L 254.922939 -97.221856 
L 254.308179 -97.766441 
L 253.693419 -98.313893 
L 253.078659 -98.864211 
L 252.463898 -99.417395 
L 251.849138 -99.973445 
L 251.234378 -100.532362 
L 250.619618 -101.094144 
L 250.004858 -101.658794 
L 249.390097 -102.226309 
L 248.775337 -102.79669 
L 248.160577 -103.369938 
L 247.545817 -103.946052 
L 246.931057 -104.525032 
L 246.316296 -105.106879 
L 245.701536 -105.691591 
L 245.086776 -106.27917 
L 244.472016 -106.869615 
L 243.857255 -107.462927 
L 243.242495 -108.059105 
L 242.627735 -108.658148 
L 242.012975 -109.260059 
L 241.398215 -109.864835 
L 240.783454 -110.472478 
L 240.168694 -111.082986 
L 239.553934 -111.696361 
L 238.939174 -112.312603 
L 238.324414 -112.93171 
L 237.709653 -113.553684 
L 237.094893 -114.178524 
L 236.480133 -114.80623 
L 235.865373 -115.436803 
L 235.250612 -116.070242 
L 234.635852 -116.706547 
L 234.021092 -117.345718 
L 233.406332 -117.987755 
L 232.791572 -118.632659 
L 232.176811 -119.280429 
L 231.562051 -119.931065 
L 230.947291 -120.584568 
L 230.332531 -121.240936 
L 229.71777 -121.900171 
L 229.10301 -122.562272 
L 228.48825 -123.22724 
L 227.87349 -123.895073 
L 227.25873 -124.565773 
L 226.643969 -125.239339 
L 226.029209 -125.915772 
L 225.414449 -126.59507 
L 224.799689 -127.277235 
L 224.184929 -127.962266 
L 223.570168 -128.650163 
L 222.955408 -129.340927 
L 222.340648 -130.034557 
L 221.725888 -130.731053 
L 221.111127 -131.430415 
L 220.496367 -132.132643 
L 219.881607 -132.837738 
L 219.266847 -133.545699 
L 218.652087 -134.256526 
L 218.037326 -134.97022 
L 217.422566 -135.686779 
L 216.807806 -136.406205 
L 216.193046 -137.128497 
L 215.578286 -137.853656 
L 214.963525 -138.58168 
L 214.348765 -139.312571 
L 213.734005 -140.046328 
L 213.119245 -140.782952 
L 212.504484 -141.522441 
L 211.889724 -142.264797 
L 211.274964 -143.010019 
L 210.660204 -143.758108 
L 210.045444 -144.509062 
L 209.430683 -145.262883 
L 208.815923 -146.01957 
L 208.201163 -146.779123 
L 207.586403 -147.541543 
L 206.971643 -148.306828 
L 206.356882 -149.07498 
L 205.742122 -149.845999 
L 205.127362 -150.619883 
L 204.512602 -151.396634 
L 203.897841 -152.176251 
L 203.283081 -152.958734 
L 202.668321 -153.744083 
L 202.053561 -154.532299 
L 201.438801 -155.323381 
L 200.82404 -156.117329 
L 200.20928 -156.914143 
L 199.59452 -157.713824 
L 198.97976 -158.516371 
L 198.365 -159.321784 
L 197.750239 -160.130063 
L 197.135479 -160.941209 
L 196.520719 -161.75522 
L 195.905959 -162.572098 
L 195.291198 -163.391843 
L 194.676438 -164.214453 
L 194.061678 -165.03993 
L 193.446918 -165.868273 
L 192.832158 -166.699482 
L 192.217397 -167.533558 
L 191.602637 -168.370499 
L 190.987877 -169.210307 
L 190.373117 -170.052981 
L 189.758357 -170.898522 
L 189.143596 -171.746928 
L 188.528836 -172.598201 
L 187.914076 -173.452341 
L 187.299316 -174.309346 
L 186.684555 -175.169217 
L 186.069795 -176.031955 
L 185.455035 -176.897559 
L 184.840275 -177.76603 
L 184.225515 -178.637366 
L 183.610754 -179.511569 
L 182.995994 -180.388638 
L 182.381234 -181.268573 
L 181.766474 -182.151375 
L 181.151714 -183.037043 
L 180.536953 -183.925577 
L 179.922193 -184.816977 
L 179.307433 -185.711243 
L 178.692673 -186.608376 
L 178.077912 -187.508375 
z
" style="stroke: #008000; stroke-opacity: 0.3"/>
    </defs>
    <g clip-path="url(#p331c5fa878)">
     <use xlink:href="#mca79f82cc7" x="0" y="432" style="fill: #008000; fill-opacity: 0.3; stroke: #008000; stroke-opacity: 0.3"/>
    </g>
   </g>
   <g id="matplotlib.axis_1">
    <g id="xtick_1">
     <g id="line2d_1">
      <defs>
       <path id="md6ca9cb865" d="M 0 0 
L 0 3.5 
" style="stroke: #000000; stroke-width: 0.8"/>
      </defs>
      <g>
       <use xlink:href="#md6ca9cb865" x="64.347273" y="404.12" style="stroke: #000000; stroke-width: 0.8"/>
      </g>
     </g>
     <g id="text_1">
      <!-- 1.00 -->
      <g transform="translate(49.024616 418.718437) scale(0.1 -0.1)">
       <defs>
        <path id="DejaVuSans-2212" d="M 678 2272 
L 4684 2272 
L 4684 1741 
L 678 1741 
L 678 2272 
z
" transform="scale(0.015625)"/>
        <path id="DejaVuSans-31" d="M 794 531 
L 1825 531 
L 1825 4091 
L 703 3866 
L 703 4441 
L 1819 4666 
L 2450 4666 
L 2450 531 
L 3481 531 
L 3481 0 
L 794 0 
L 794 531 
z
" transform="scale(0.015625)"/>
        <path id="DejaVuSans-2e" d="M 684 794 
L 1344 794 
L 1344 0 
L 684 0 
L 684 794 
z
" transform="scale(0.015625)"/>
        <path id="DejaVuSans-30" d="M 2034 4250 
Q 1547 4250 1301 3770 
Q 1056 3291 1056 2328 
Q 1056 1369 1301 889 
Q 1547 409 2034 409 
Q 2525 409 2770 889 
Q 3016 1369 3016 2328 
Q 3016 3291 2770 3770 
Q 2525 4250 2034 4250 
z
M 2034 4750 
Q 2819 4750 3233 4129 
Q 3647 3509 3647 2328 
Q 3647 1150 3233 529 
Q 2819 -91 2034 -91 
Q 1250 -91 836 529 
Q 422 1150 422 2328 
Q 422 3509 836 4129 
Q 1250 4750 2034 4750 
z
" transform="scale(0.015625)"/>
       </defs>
       <use xlink:href="#DejaVuSans-2212"/>
       <use xlink:href="#DejaVuSans-31" x="83.789062"/>
       <use xlink:href="#DejaVuSans-2e" x="147.412109"/>
       <use xlink:href="#DejaVuSans-30" x="179.199219"/>
       <use xlink:href="#DejaVuSans-30" x="242.822266"/>
      </g>
     </g>
    </g>
    <g id="xtick_2">
     <g id="line2d_2">
      <g>
       <use xlink:href="#md6ca9cb865" x="141.115455" y="404.12" style="stroke: #000000; stroke-width: 0.8"/>
      </g>
     </g>
     <g id="text_2">
      <!-- 0.75 -->
      <g transform="translate(125.792798 418.718437) scale(0.1 -0.1)">
       <defs>
        <path id="DejaVuSans-37" d="M 525 4666 
L 3525 4666 
L 3525 4397 
L 1831 0 
L 1172 0 
L 2766 4134 
L 525 4134 
L 525 4666 
z
" transform="scale(0.015625)"/>
        <path id="DejaVuSans-35" d="M 691 4666 
L 3169 4666 
L 3169 4134 
L 1269 4134 
L 1269 2991 
Q 1406 3038 1543 3061 
Q 1681 3084 1819 3084 
Q 2600 3084 3056 2656 
Q 3513 2228 3513 1497 
Q 3513 744 3044 326 
Q 2575 -91 1722 -91 
Q 1428 -91 1123 -41 
Q 819 9 494 109 
L 494 744 
Q 775 591 1075 516 
Q 1375 441 1709 441 
Q 2250 441 2565 725 
Q 2881 1009 2881 1497 
Q 2881 1984 2565 2268 
Q 2250 2553 1709 2553 
Q 1456 2553 1204 2497 
Q 953 2441 691 2322 
L 691 4666 
z
" transform="scale(0.015625)"/>
       </defs>
       <use xlink:href="#DejaVuSans-2212"/>
       <use xlink:href="#DejaVuSans-30" x="83.789062"/>
       <use xlink:href="#DejaVuSans-2e" x="147.412109"/>
       <use xlink:href="#DejaVuSans-37" x="179.199219"/>
       <use xlink:href="#DejaVuSans-35" x="242.822266"/>
      </g>
     </g>
    </g>
    <g id="xtick_3">
     <g id="line2d_3">
      <g>
       <use xlink:href="#md6ca9cb865" x="217.883636" y="404.12" style="stroke: #000000; stroke-width: 0.8"/>
      </g>
     </g>
     <g id="text_3">
      <!-- 0.50 -->
      <g transform="translate(202.56098 418.718437) scale(0.1 -0.1)">
       <use xlink:href="#DejaVuSans-2212"/>
       <use xlink:href="#DejaVuSans-30" x="83.789062"/>
       <use xlink:href="#DejaVuSans-2e" x="147.412109"/>
       <use xlink:href="#DejaVuSans-35" x="179.199219"/>
       <use xlink:href="#DejaVuSans-30" x="242.822266"/>
      </g>
     </g>
    </g>
    <g id="xtick_4">
     <g id="line2d_4">
      <g>
       <use xlink:href="#md6ca9cb865" x="294.651818" y="404.12" style="stroke: #000000; stroke-width: 0.8"/>
      </g>
     </g>
     <g id="text_4">
      <!-- 0.25 -->
      <g transform="translate(279.329162 418.718437) scale(0.1 -0.1)">
       <defs>
        <path id="DejaVuSans-32" d="M 1228 531 
L 3431 531 
L 3431 0 
L 469 0 
L 469 531 
Q 828 903 1448 1529 
Q 2069 2156 2228 2338 
Q 2531 2678 2651 2914 
Q 2772 3150 2772 3378 
Q 2772 3750 2511 3984 
Q 2250 4219 1831 4219 
Q 1534 4219 1204 4116 
Q 875 4013 500 3803 
L 500 4441 
Q 881 4594 1212 4672 
Q 1544 4750 1819 4750 
Q 2544 4750 2975 4387 
Q 3406 4025 3406 3419 
Q 3406 3131 3298 2873 
Q 3191 2616 2906 2266 
Q 2828 2175 2409 1742 
Q 1991 1309 1228 531 
z
" transform="scale(0.015625)"/>
       </defs>
       <use xlink:href="#DejaVuSans-2212"/>
       <use xlink:href="#DejaVuSans-30" x="83.789062"/>
       <use xlink:href="#DejaVuSans-2e" x="147.412109"/>
       <use xlink:href="#DejaVuSans-32" x="179.199219"/>
       <use xlink:href="#DejaVuSans-35" x="242.822266"/>
      </g>
     </g>
    </g>
    <g id="xtick_5">
     <g id="line2d_5">
      <g>
       <use xlink:href="#md6ca9cb865" x="371.42" y="404.12" style="stroke: #000000; stroke-width: 0.8"/>
      </g>
     </g>
     <g id="text_5">
      <!-- 0.00 -->
      <g transform="translate(360.287188 418.718437) scale(0.1 -0.1)">
       <use xlink:href="#DejaVuSans-30"/>
       <use xlink:href="#DejaVuSans-2e" x="63.623047"/>
       <use xlink:href="#DejaVuSans-30" x="95.410156"/>
       <use xlink:href="#DejaVuSans-30" x="159.033203"/>
      </g>
     </g>
    </g>
    <g id="xtick_6">
     <g id="line2d_6">
      <g>
       <use xlink:href="#md6ca9cb865" x="448.188182" y="404.12" style="stroke: #000000; stroke-width: 0.8"/>
      </g>
     </g>
     <g id="text_6">
      <!-- 0.25 -->
      <g transform="translate(437.055369 418.718437) scale(0.1 -0.1)">
       <use xlink:href="#DejaVuSans-30"/>
       <use xlink:href="#DejaVuSans-2e" x="63.623047"/>
       <use xlink:href="#DejaVuSans-32" x="95.410156"/>
       <use xlink:href="#DejaVuSans-35" x="159.033203"/>
      </g>
     </g>
    </g>
    <g id="xtick_7">
     <g id="line2d_7">
      <g>
       <use xlink:href="#md6ca9cb865" x="524.956364" y="404.12" style="stroke: #000000; stroke-width: 0.8"/>
      </g>
     </g>
     <g id="text_7">
      <!-- 0.50 -->
      <g transform="translate(513.823551 418.718437) scale(0.1 -0.1)">
       <use xlink:href="#DejaVuSans-30"/>
       <use xlink:href="#DejaVuSans-2e" x="63.623047"/>
       <use xlink:href="#DejaVuSans-35" x="95.410156"/>
       <use xlink:href="#DejaVuSans-30" x="159.033203"/>
      </g>
     </g>
    </g>
    <g id="xtick_8">
     <g id="line2d_8">
      <g>
       <use xlink:href="#md6ca9cb865" x="601.724545" y="404.12" style="stroke: #000000; stroke-width: 0.8"/>
      </g>
     </g>
     <g id="text_8">
      <!-- 0.75 -->
      <g transform="translate(590.591733 418.718437) scale(0.1 -0.1)">
       <use xlink:href="#DejaVuSans-30"/>
       <use xlink:href="#DejaVuSans-2e" x="63.623047"/>
       <use xlink:href="#DejaVuSans-37" x="95.410156"/>
       <use xlink:href="#DejaVuSans-35" x="159.033203"/>
      </g>
     </g>
    </g>
    <g id="xtick_9">
     <g id="line2d_9">
      <g>
       <use xlink:href="#md6ca9cb865" x="678.492727" y="404.12" style="stroke: #000000; stroke-width: 0.8"/>
      </g>
     </g>
     <g id="text_9">
      <!-- 1.00 -->
      <g transform="translate(667.359915 418.718437) scale(0.1 -0.1)">
       <use xlink:href="#DejaVuSans-31"/>
       <use xlink:href="#DejaVuSans-2e" x="63.623047"/>
       <use xlink:href="#DejaVuSans-30" x="95.410156"/>
       <use xlink:href="#DejaVuSans-30" x="159.033203"/>
      </g>
     </g>
    </g>
   </g>
   <g id="matplotlib.axis_2">
    <g id="ytick_1">
     <g id="line2d_10">
      <defs>
       <path id="m8677fa1546" d="M 0 0 
L -3.5 0 
" style="stroke: #000000; stroke-width: 0.8"/>
      </defs>
      <g>
       <use xlink:href="#m8677fa1546" x="33.64" y="386.241818" style="stroke: #000000; stroke-width: 0.8"/>
      </g>
     </g>
     <g id="text_10">
      <!-- 0.0 -->
      <g transform="translate(10.736875 390.041037) scale(0.1 -0.1)">
       <use xlink:href="#DejaVuSans-30"/>
       <use xlink:href="#DejaVuSans-2e" x="63.623047"/>
       <use xlink:href="#DejaVuSans-30" x="95.410156"/>
      </g>
     </g>
    </g>
    <g id="ytick_2">
     <g id="line2d_11">
      <g>
       <use xlink:href="#m8677fa1546" x="33.64" y="314.729091" style="stroke: #000000; stroke-width: 0.8"/>
      </g>
     </g>
     <g id="text_11">
      <!-- 0.2 -->
      <g transform="translate(10.736875 318.52831) scale(0.1 -0.1)">
       <use xlink:href="#DejaVuSans-30"/>
       <use xlink:href="#DejaVuSans-2e" x="63.623047"/>
       <use xlink:href="#DejaVuSans-32" x="95.410156"/>
      </g>
     </g>
    </g>
    <g id="ytick_3">
     <g id="line2d_12">
      <g>
       <use xlink:href="#m8677fa1546" x="33.64" y="243.216364" style="stroke: #000000; stroke-width: 0.8"/>
      </g>
     </g>
     <g id="text_12">
      <!-- 0.4 -->
      <g transform="translate(10.736875 247.015582) scale(0.1 -0.1)">
       <defs>
        <path id="DejaVuSans-34" d="M 2419 4116 
L 825 1625 
L 2419 1625 
L 2419 4116 
z
M 2253 4666 
L 3047 4666 
L 3047 1625 
L 3713 1625 
L 3713 1100 
L 3047 1100 
L 3047 0 
L 2419 0 
L 2419 1100 
L 313 1100 
L 313 1709 
L 2253 4666 
z
" transform="scale(0.015625)"/>
       </defs>
       <use xlink:href="#DejaVuSans-30"/>
       <use xlink:href="#DejaVuSans-2e" x="63.623047"/>
       <use xlink:href="#DejaVuSans-34" x="95.410156"/>
      </g>
     </g>
    </g>
    <g id="ytick_4">
     <g id="line2d_13">
      <g>
       <use xlink:href="#m8677fa1546" x="33.64" y="171.703636" style="stroke: #000000; stroke-width: 0.8"/>
      </g>
     </g>
     <g id="text_13">
      <!-- 0.6 -->
      <g transform="translate(10.736875 175.502855) scale(0.1 -0.1)">
       <defs>
        <path id="DejaVuSans-36" d="M 2113 2584 
Q 1688 2584 1439 2293 
Q 1191 2003 1191 1497 
Q 1191 994 1439 701 
Q 1688 409 2113 409 
Q 2538 409 2786 701 
Q 3034 994 3034 1497 
Q 3034 2003 2786 2293 
Q 2538 2584 2113 2584 
z
M 3366 4563 
L 3366 3988 
Q 3128 4100 2886 4159 
Q 2644 4219 2406 4219 
Q 1781 4219 1451 3797 
Q 1122 3375 1075 2522 
Q 1259 2794 1537 2939 
Q 1816 3084 2150 3084 
Q 2853 3084 3261 2657 
Q 3669 2231 3669 1497 
Q 3669 778 3244 343 
Q 2819 -91 2113 -91 
Q 1303 -91 875 529 
Q 447 1150 447 2328 
Q 447 3434 972 4092 
Q 1497 4750 2381 4750 
Q 2619 4750 2861 4703 
Q 3103 4656 3366 4563 
z
" transform="scale(0.015625)"/>
       </defs>
       <use xlink:href="#DejaVuSans-30"/>
       <use xlink:href="#DejaVuSans-2e" x="63.623047"/>
       <use xlink:href="#DejaVuSans-36" x="95.410156"/>
      </g>
     </g>
    </g>
    <g id="ytick_5">
     <g id="line2d_14">
      <g>
       <use xlink:href="#m8677fa1546" x="33.64" y="100.190909" style="stroke: #000000; stroke-width: 0.8"/>
      </g>
     </g>
     <g id="text_14">
      <!-- 0.8 -->
      <g transform="translate(10.736875 103.990128) scale(0.1 -0.1)">
       <defs>
        <path id="DejaVuSans-38" d="M 2034 2216 
Q 1584 2216 1326 1975 
Q 1069 1734 1069 1313 
Q 1069 891 1326 650 
Q 1584 409 2034 409 
Q 2484 409 2743 651 
Q 3003 894 3003 1313 
Q 3003 1734 2745 1975 
Q 2488 2216 2034 2216 
z
M 1403 2484 
Q 997 2584 770 2862 
Q 544 3141 544 3541 
Q 544 4100 942 4425 
Q 1341 4750 2034 4750 
Q 2731 4750 3128 4425 
Q 3525 4100 3525 3541 
Q 3525 3141 3298 2862 
Q 3072 2584 2669 2484 
Q 3125 2378 3379 2068 
Q 3634 1759 3634 1313 
Q 3634 634 3220 271 
Q 2806 -91 2034 -91 
Q 1263 -91 848 271 
Q 434 634 434 1313 
Q 434 1759 690 2068 
Q 947 2378 1403 2484 
z
M 1172 3481 
Q 1172 3119 1398 2916 
Q 1625 2713 2034 2713 
Q 2441 2713 2670 2916 
Q 2900 3119 2900 3481 
Q 2900 3844 2670 4047 
Q 2441 4250 2034 4250 
Q 1625 4250 1398 4047 
Q 1172 3844 1172 3481 
z
" transform="scale(0.015625)"/>
       </defs>
       <use xlink:href="#DejaVuSans-30"/>
       <use xlink:href="#DejaVuSans-2e" x="63.623047"/>
       <use xlink:href="#DejaVuSans-38" x="95.410156"/>
      </g>
     </g>
    </g>
    <g id="ytick_6">
     <g id="line2d_15">
      <g>
       <use xlink:href="#m8677fa1546" x="33.64" y="28.678182" style="stroke: #000000; stroke-width: 0.8"/>
      </g>
     </g>
     <g id="text_15">
      <!-- 1.0 -->
      <g transform="translate(10.736875 32.477401) scale(0.1 -0.1)">
       <use xlink:href="#DejaVuSans-31"/>
       <use xlink:href="#DejaVuSans-2e" x="63.623047"/>
       <use xlink:href="#DejaVuSans-30" x="95.410156"/>
      </g>
     </g>
    </g>
   </g>
   <g id="line2d_16">
    <path d="M 64.347273 28.678182 
L 72.953916 48.440898 
L 81.560559 67.641831 
L 90.167202 86.280981 
L 98.773845 104.358349 
L 106.765728 120.641451 
L 114.75761 136.440158 
L 122.749493 151.754472 
L 130.741376 166.584391 
L 138.733259 180.929915 
L 146.725142 194.791046 
L 154.102264 207.156 
L 161.479387 219.108215 
L 168.856509 230.647692 
L 176.233632 241.774431 
L 183.610754 252.488431 
L 190.987877 262.789693 
L 197.750239 271.869937 
L 204.512602 280.603366 
L 211.274964 288.989981 
L 218.037326 297.02978 
L 224.799689 304.722765 
L 231.562051 312.068935 
L 238.324414 319.06829 
L 245.086776 325.72083 
L 251.234378 331.467638 
L 257.38198 336.927823 
L 263.529582 342.101384 
L 269.677184 346.988321 
L 275.824787 351.588634 
L 281.972389 355.902323 
L 288.119991 359.929389 
L 294.267593 363.66983 
L 299.800435 366.791164 
L 305.333277 369.680333 
L 310.866119 372.337336 
L 316.398961 374.762174 
L 321.931803 376.954847 
L 327.464645 378.915354 
L 332.997487 380.643696 
L 338.530329 382.139872 
L 344.06317 383.403884 
L 349.596012 384.43573 
L 355.128854 385.23541 
L 360.661696 385.802925 
L 366.194538 386.138275 
L 371.72738 386.24146 
L 377.260222 386.112479 
L 382.793064 385.751333 
L 388.325906 385.158022 
L 393.858748 384.332545 
L 399.39159 383.274903 
L 404.924432 381.985095 
L 410.457274 380.463123 
L 415.990116 378.708985 
L 421.522958 376.722681 
L 427.055799 374.504212 
L 432.588641 372.053578 
L 438.121483 369.370779 
L 443.654325 366.455814 
L 449.187167 363.308684 
L 455.334769 359.53958 
L 461.482371 355.483852 
L 467.629974 351.141501 
L 473.777576 346.512525 
L 479.925178 341.596926 
L 486.07278 336.394703 
L 492.220382 330.905856 
L 498.367984 325.130385 
L 504.515586 319.06829 
L 511.277949 312.068935 
L 518.040311 304.722765 
L 524.802674 297.02978 
L 531.565036 288.989981 
L 538.327398 280.603366 
L 545.089761 271.869937 
L 551.852123 262.789693 
L 558.614485 253.362634 
L 565.991608 242.683028 
L 573.368731 231.590684 
L 580.745853 220.085602 
L 588.122976 208.167782 
L 595.500098 195.837223 
L 602.877221 183.093926 
L 610.869104 168.822923 
L 618.860986 154.067526 
L 626.852869 138.827735 
L 634.844752 123.10355 
L 642.836635 106.89497 
L 650.828518 90.201996 
L 658.8204 73.024627 
L 667.427043 53.984203 
L 676.033686 34.381997 
L 678.492727 28.678182 
L 678.492727 28.678182 
" clip-path="url(#p331c5fa878)" style="fill: none; stroke: #0000ff; stroke-width: 1.5; stroke-linecap: square"/>
   </g>
   <g id="line2d_17">
    <defs>
     <path id="mf056913f60" d="M 0 4 
C 1.060812 4 2.078319 3.578535 2.828427 2.828427 
C 3.578535 2.078319 4 1.060812 4 0 
C 4 -1.060812 3.578535 -2.078319 2.828427 -2.828427 
C 2.078319 -3.578535 1.060812 -4 0 -4 
C -1.060812 -4 -2.078319 -3.578535 -2.828427 -2.828427 
C -3.578535 -2.078319 -4 -1.060812 -4 0 
C -4 1.060812 -3.578535 2.078319 -2.828427 2.828427 
C -2.078319 3.578535 -1.060812 4 0 4 
z
" style="stroke: #ff0000"/>
    </defs>
    <g clip-path="url(#p331c5fa878)">
     <use xlink:href="#mf056913f60" x="156.469091" y="211.035636" style="fill: #ff0000; stroke: #ff0000"/>
    </g>
   </g>
   <g id="line2d_18">
    <defs>
     <path id="m97e470e7c7" d="M 0 4 
C 1.060812 4 2.078319 3.578535 2.828427 2.828427 
C 3.578535 2.078319 4 1.060812 4 0 
C 4 -1.060812 3.578535 -2.078319 2.828427 -2.828427 
C 2.078319 -3.578535 1.060812 -4 0 -4 
C -1.060812 -4 -2.078319 -3.578535 -2.828427 -2.828427 
C -3.578535 -2.078319 -4 -1.060812 -4 0 
C -4 1.060812 -3.578535 2.078319 -2.828427 2.828427 
C -2.078319 3.578535 -1.060812 4 0 4 
z
" style="stroke: #008000"/>
    </defs>
    <g clip-path="url(#p331c5fa878)">
     <use xlink:href="#m97e470e7c7" x="524.956364" y="296.850909" style="fill: #008000; stroke: #008000"/>
    </g>
   </g>
   <g id="line2d_19">
    <defs>
     <path id="m8746184f56" d="M 0 4 
C 1.060812 4 2.078319 3.578535 2.828427 2.828427 
C 3.578535 2.078319 4 1.060812 4 0 
C 4 -1.060812 3.578535 -2.078319 2.828427 -2.828427 
C 2.078319 -3.578535 1.060812 -4 0 -4 
C -1.060812 -4 -2.078319 -3.578535 -2.828427 -2.828427 
C -3.578535 -2.078319 -4 -1.060812 -4 0 
C -4 1.060812 -3.578535 2.078319 -2.828427 2.828427 
C -2.078319 3.578535 -1.060812 4 0 4 
z
" style="stroke: #bf00bf"/>
    </defs>
    <g clip-path="url(#p331c5fa878)">
     <use xlink:href="#m8746184f56" x="371.42" y="386.241818" style="fill: #bf00bf; stroke: #bf00bf"/>
    </g>
   </g>
   <g id="patch_3">
    <path d="M 33.64 404.12 
L 33.64 10.8 
" style="fill: none; stroke: #000000; stroke-width: 0.8; stroke-linejoin: miter; stroke-linecap: square"/>
   </g>
   <g id="patch_4">
    <path d="M 709.2 404.12 
L 709.2 10.8 
" style="fill: none; stroke: #000000; stroke-width: 0.8; stroke-linejoin: miter; stroke-linecap: square"/>
   </g>
   <g id="patch_5">
    <path d="M 33.64 404.12 
L 709.2 404.12 
" style="fill: none; stroke: #000000; stroke-width: 0.8; stroke-linejoin: miter; stroke-linecap: square"/>
   </g>
   <g id="patch_6">
    <path d="M 33.64 10.8 
L 709.2 10.8 
" style="fill: none; stroke: #000000; stroke-width: 0.8; stroke-linejoin: miter; stroke-linecap: square"/>
   </g>
   <g id="text_16">
    <!-- $\vec{x}_0$ -->
    <g transform="translate(146.469091 201.035636) scale(0.12 -0.12)">
     <defs>
      <path id="DejaVuSans-20d7" d="M -3009 4066 
L -3009 4378 
L -694 4378 
L -1106 4863 
L -713 4863 
L -166 4222 
L -713 3581 
L -1106 3581 
L -694 4066 
L -3009 4066 
z
" transform="scale(0.015625)"/>
      <path id="DejaVuSans-Oblique-78" d="M 3841 3500 
L 2234 1784 
L 3219 0 
L 2559 0 
L 1819 1388 
L 531 0 
L -166 0 
L 1556 1844 
L 641 3500 
L 1300 3500 
L 1972 2234 
L 3144 3500 
L 3841 3500 
z
" transform="scale(0.015625)"/>
     </defs>
     <use xlink:href="#DejaVuSans-20d7" transform="translate(61.810547 12.015625)"/>
     <use xlink:href="#DejaVuSans-Oblique-78" transform="translate(0 0.78125)"/>
     <use xlink:href="#DejaVuSans-30" transform="translate(60.136719 -15.625) scale(0.7)"/>
    </g>
   </g>
   <g id="text_17">
    <!-- $\vec{x}_0 + \alpha_i \cdot \vec{p}$ -->
    <g transform="translate(534.956364 306.850909) scale(0.12 -0.12)">
     <defs>
      <path id="DejaVuSans-2b" d="M 2944 4013 
L 2944 2272 
L 4684 2272 
L 4684 1741 
L 2944 1741 
L 2944 0 
L 2419 0 
L 2419 1741 
L 678 1741 
L 678 2272 
L 2419 2272 
L 2419 4013 
L 2944 4013 
z
" transform="scale(0.015625)"/>
      <path id="DejaVuSans-Oblique-3b1" d="M 2619 1628 
L 2622 2350 
Q 2625 3088 2069 3091 
Q 1653 3094 1394 2747 
Q 1069 2319 959 1747 
Q 825 1059 994 731 
Q 1169 397 1547 397 
Q 1966 397 2319 1063 
L 2619 1628 
z
M 2166 3578 
Q 3141 3594 3128 2584 
Q 3128 2584 3616 3500 
L 4128 3500 
L 3119 1603 
L 3109 919 
Q 3109 766 3194 638 
Q 3291 488 3391 488 
L 3669 488 
L 3575 0 
L 3228 0 
Q 2934 0 2722 263 
Q 2622 394 2619 669 
Q 2416 334 2066 50 
Q 1900 -81 1453 -78 
Q 722 -72 456 397 
Q 184 884 353 1747 
Q 534 2675 1009 3097 
Q 1544 3569 2166 3578 
z
" transform="scale(0.015625)"/>
      <path id="DejaVuSans-Oblique-69" d="M 1172 4863 
L 1747 4863 
L 1606 4134 
L 1031 4134 
L 1172 4863 
z
M 909 3500 
L 1484 3500 
L 800 0 
L 225 0 
L 909 3500 
z
" transform="scale(0.015625)"/>
      <path id="DejaVuSans-22c5" d="M 684 2619 
L 1344 2619 
L 1344 1825 
L 684 1825 
L 684 2619 
z
" transform="scale(0.015625)"/>
      <path id="DejaVuSans-Oblique-70" d="M 3175 2156 
Q 3175 2616 2975 2859 
Q 2775 3103 2400 3103 
Q 2144 3103 1911 2972 
Q 1678 2841 1497 2591 
Q 1319 2344 1212 1994 
Q 1106 1644 1106 1300 
Q 1106 863 1306 627 
Q 1506 391 1875 391 
Q 2147 391 2380 519 
Q 2613 647 2778 891 
Q 2956 1147 3065 1494 
Q 3175 1841 3175 2156 
z
M 1394 2969 
Q 1625 3272 1939 3428 
Q 2253 3584 2638 3584 
Q 3175 3584 3472 3232 
Q 3769 2881 3769 2247 
Q 3769 1728 3584 1258 
Q 3400 788 3053 416 
Q 2822 169 2531 39 
Q 2241 -91 1919 -91 
Q 1547 -91 1294 64 
Q 1041 219 916 525 
L 556 -1331 
L -19 -1331 
L 922 3500 
L 1497 3500 
L 1394 2969 
z
" transform="scale(0.015625)"/>
     </defs>
     <use xlink:href="#DejaVuSans-20d7" transform="translate(61.810547 11.703125)"/>
     <use xlink:href="#DejaVuSans-Oblique-78" transform="translate(0 0.46875)"/>
     <use xlink:href="#DejaVuSans-30" transform="translate(60.136719 -15.9375) scale(0.7)"/>
     <use xlink:href="#DejaVuSans-2b" transform="translate(126.889648 0.46875)"/>
     <use xlink:href="#DejaVuSans-Oblique-3b1" transform="translate(230.161133 0.46875)"/>
     <use xlink:href="#DejaVuSans-Oblique-69" transform="translate(296.079102 -15.9375) scale(0.7)"/>
     <use xlink:href="#DejaVuSans-22c5" transform="translate(337.744141 0.46875)"/>
     <use xlink:href="#DejaVuSans-20d7" transform="translate(453.898438 13.015625)"/>
     <use xlink:href="#DejaVuSans-Oblique-70" transform="translate(389.013672 0.46875)"/>
    </g>
   </g>
   <g id="text_18">
    <!-- $\vec{x}_{\text{opt}}$ -->
    <g transform="translate(381.42 376.241818) scale(0.12 -0.12)">
     <defs>
      <path id="DejaVuSans-6f" d="M 1959 3097 
Q 1497 3097 1228 2736 
Q 959 2375 959 1747 
Q 959 1119 1226 758 
Q 1494 397 1959 397 
Q 2419 397 2687 759 
Q 2956 1122 2956 1747 
Q 2956 2369 2687 2733 
Q 2419 3097 1959 3097 
z
M 1959 3584 
Q 2709 3584 3137 3096 
Q 3566 2609 3566 1747 
Q 3566 888 3137 398 
Q 2709 -91 1959 -91 
Q 1206 -91 779 398 
Q 353 888 353 1747 
Q 353 2609 779 3096 
Q 1206 3584 1959 3584 
z
" transform="scale(0.015625)"/>
      <path id="DejaVuSans-70" d="M 1159 525 
L 1159 -1331 
L 581 -1331 
L 581 3500 
L 1159 3500 
L 1159 2969 
Q 1341 3281 1617 3432 
Q 1894 3584 2278 3584 
Q 2916 3584 3314 3078 
Q 3713 2572 3713 1747 
Q 3713 922 3314 415 
Q 2916 -91 2278 -91 
Q 1894 -91 1617 61 
Q 1341 213 1159 525 
z
M 3116 1747 
Q 3116 2381 2855 2742 
Q 2594 3103 2138 3103 
Q 1681 3103 1420 2742 
Q 1159 2381 1159 1747 
Q 1159 1113 1420 752 
Q 1681 391 2138 391 
Q 2594 391 2855 752 
Q 3116 1113 3116 1747 
z
" transform="scale(0.015625)"/>
      <path id="DejaVuSans-74" d="M 1172 4494 
L 1172 3500 
L 2356 3500 
L 2356 3053 
L 1172 3053 
L 1172 1153 
Q 1172 725 1289 603 
Q 1406 481 1766 481 
L 2356 481 
L 2356 0 
L 1766 0 
Q 1100 0 847 248 
Q 594 497 594 1153 
L 594 3053 
L 172 3053 
L 172 3500 
L 594 3500 
L 594 4494 
L 1172 4494 
z
" transform="scale(0.015625)"/>
     </defs>
     <use xlink:href="#DejaVuSans-20d7" transform="translate(61.810547 12.015625)"/>
     <use xlink:href="#DejaVuSans-Oblique-78" transform="translate(0 0.78125)"/>
     <use xlink:href="#DejaVuSans-6f" transform="translate(60.136719 -15.625) scale(0.7)"/>
     <use xlink:href="#DejaVuSans-70" transform="translate(102.963867 -15.625) scale(0.7)"/>
     <use xlink:href="#DejaVuSans-74" transform="translate(147.397461 -15.625) scale(0.7)"/>
    </g>
   </g>
   <g id="patch_7">
    <path d="M 175.118584 214.352069 
Q 335.094517 251.608114 495.07045 288.864159 
L 495.977713 284.968408 
Q 501.25418 288.764119 506.530646 292.55983 
Q 500.120101 293.633808 493.709556 294.707785 
L 494.616819 290.812035 
Q 334.640885 253.55599 174.664952 216.299945 
L 175.118584 214.352069 
z
" style="stroke: #000000; stroke-linecap: round"/>
   </g>
   <g id="legend_1">
    <g id="patch_8">
     <path d="M 40.64 399.12 
L 104.832188 399.12 
Q 106.832188 399.12 106.832188 397.12 
L 106.832188 352.56375 
Q 106.832188 350.56375 104.832188 350.56375 
L 40.64 350.56375 
Q 38.64 350.56375 38.64 352.56375 
L 38.64 397.12 
Q 38.64 399.12 40.64 399.12 
z
" style="fill: #ffffff; opacity: 0.8; stroke: #cccccc; stroke-linejoin: miter"/>
    </g>
    <g id="line2d_20">
     <path d="M 42.64 360.16375 
L 52.64 360.16375 
L 62.64 360.16375 
" style="fill: none; stroke: #0000ff; stroke-width: 1.5; stroke-linecap: square"/>
    </g>
    <g id="text_19">
     <!-- $y = x^2$ -->
     <g transform="translate(70.64 363.66375) scale(0.1 -0.1)">
      <defs>
       <path id="DejaVuSans-Oblique-79" d="M 1588 -325 
Q 1188 -997 936 -1164 
Q 684 -1331 294 -1331 
L -159 -1331 
L -63 -850 
L 269 -850 
Q 509 -850 678 -719 
Q 847 -588 1056 -206 
L 1234 128 
L 459 3500 
L 1069 3500 
L 1650 819 
L 3256 3500 
L 3859 3500 
L 1588 -325 
z
" transform="scale(0.015625)"/>
       <path id="DejaVuSans-3d" d="M 678 2906 
L 4684 2906 
L 4684 2381 
L 678 2381 
L 678 2906 
z
M 678 1631 
L 4684 1631 
L 4684 1100 
L 678 1100 
L 678 1631 
z
" transform="scale(0.015625)"/>
      </defs>
      <use xlink:href="#DejaVuSans-Oblique-79" transform="translate(0 0.765625)"/>
      <use xlink:href="#DejaVuSans-3d" transform="translate(78.662109 0.765625)"/>
      <use xlink:href="#DejaVuSans-Oblique-78" transform="translate(181.933594 0.765625)"/>
      <use xlink:href="#DejaVuSans-32" transform="translate(245.579427 39.046875) scale(0.7)"/>
     </g>
    </g>
    <g id="patch_9">
     <path d="M 42.64 378.362188 
L 62.64 378.362188 
L 62.64 371.362188 
L 42.64 371.362188 
z
" style="fill: #808080; fill-opacity: 0.5; stroke: #808080; stroke-opacity: 0.5; stroke-linejoin: miter"/>
    </g>
    <g id="text_20">
     <!-- Armijo -->
     <g transform="translate(70.64 378.362188) scale(0.1 -0.1)">
      <defs>
       <path id="DejaVuSans-41" d="M 2188 4044 
L 1331 1722 
L 3047 1722 
L 2188 4044 
z
M 1831 4666 
L 2547 4666 
L 4325 0 
L 3669 0 
L 3244 1197 
L 1141 1197 
L 716 0 
L 50 0 
L 1831 4666 
z
" transform="scale(0.015625)"/>
       <path id="DejaVuSans-72" d="M 2631 2963 
Q 2534 3019 2420 3045 
Q 2306 3072 2169 3072 
Q 1681 3072 1420 2755 
Q 1159 2438 1159 1844 
L 1159 0 
L 581 0 
L 581 3500 
L 1159 3500 
L 1159 2956 
Q 1341 3275 1631 3429 
Q 1922 3584 2338 3584 
Q 2397 3584 2469 3576 
Q 2541 3569 2628 3553 
L 2631 2963 
z
" transform="scale(0.015625)"/>
       <path id="DejaVuSans-6d" d="M 3328 2828 
Q 3544 3216 3844 3400 
Q 4144 3584 4550 3584 
Q 5097 3584 5394 3201 
Q 5691 2819 5691 2113 
L 5691 0 
L 5113 0 
L 5113 2094 
Q 5113 2597 4934 2840 
Q 4756 3084 4391 3084 
Q 3944 3084 3684 2787 
Q 3425 2491 3425 1978 
L 3425 0 
L 2847 0 
L 2847 2094 
Q 2847 2600 2669 2842 
Q 2491 3084 2119 3084 
Q 1678 3084 1418 2786 
Q 1159 2488 1159 1978 
L 1159 0 
L 581 0 
L 581 3500 
L 1159 3500 
L 1159 2956 
Q 1356 3278 1631 3431 
Q 1906 3584 2284 3584 
Q 2666 3584 2933 3390 
Q 3200 3197 3328 2828 
z
" transform="scale(0.015625)"/>
       <path id="DejaVuSans-69" d="M 603 3500 
L 1178 3500 
L 1178 0 
L 603 0 
L 603 3500 
z
M 603 4863 
L 1178 4863 
L 1178 4134 
L 603 4134 
L 603 4863 
z
" transform="scale(0.015625)"/>
       <path id="DejaVuSans-6a" d="M 603 3500 
L 1178 3500 
L 1178 -63 
Q 1178 -731 923 -1031 
Q 669 -1331 103 -1331 
L -116 -1331 
L -116 -844 
L 38 -844 
Q 366 -844 484 -692 
Q 603 -541 603 -63 
L 603 3500 
z
M 603 4863 
L 1178 4863 
L 1178 4134 
L 603 4134 
L 603 4863 
z
" transform="scale(0.015625)"/>
      </defs>
      <use xlink:href="#DejaVuSans-41"/>
      <use xlink:href="#DejaVuSans-72" x="68.408203"/>
      <use xlink:href="#DejaVuSans-6d" x="107.771484"/>
      <use xlink:href="#DejaVuSans-69" x="205.183594"/>
      <use xlink:href="#DejaVuSans-6a" x="232.966797"/>
      <use xlink:href="#DejaVuSans-6f" x="260.75"/>
     </g>
    </g>
    <g id="patch_10">
     <path d="M 42.64 393.040313 
L 62.64 393.040313 
L 62.64 386.040313 
L 42.64 386.040313 
z
" style="fill: #008000; fill-opacity: 0.3; stroke: #008000; stroke-opacity: 0.3; stroke-linejoin: miter"/>
    </g>
    <g id="text_21">
     <!-- Wolfe -->
     <g transform="translate(70.64 393.040313) scale(0.1 -0.1)">
      <defs>
       <path id="DejaVuSans-57" d="M 213 4666 
L 850 4666 
L 1831 722 
L 2809 4666 
L 3519 4666 
L 4500 722 
L 5478 4666 
L 6119 4666 
L 4947 0 
L 4153 0 
L 3169 4050 
L 2175 0 
L 1381 0 
L 213 4666 
z
" transform="scale(0.015625)"/>
       <path id="DejaVuSans-6c" d="M 603 4863 
L 1178 4863 
L 1178 0 
L 603 0 
L 603 4863 
z
" transform="scale(0.015625)"/>
       <path id="DejaVuSans-66" d="M 2375 4863 
L 2375 4384 
L 1825 4384 
Q 1516 4384 1395 4259 
Q 1275 4134 1275 3809 
L 1275 3500 
L 2222 3500 
L 2222 3053 
L 1275 3053 
L 1275 0 
L 697 0 
L 697 3053 
L 147 3053 
L 147 3500 
L 697 3500 
L 697 3744 
Q 697 4328 969 4595 
Q 1241 4863 1831 4863 
L 2375 4863 
z
" transform="scale(0.015625)"/>
       <path id="DejaVuSans-65" d="M 3597 1894 
L 3597 1613 
L 953 1613 
Q 991 1019 1311 708 
Q 1631 397 2203 397 
Q 2534 397 2845 478 
Q 3156 559 3463 722 
L 3463 178 
Q 3153 47 2828 -22 
Q 2503 -91 2169 -91 
Q 1331 -91 842 396 
Q 353 884 353 1716 
Q 353 2575 817 3079 
Q 1281 3584 2069 3584 
Q 2775 3584 3186 3129 
Q 3597 2675 3597 1894 
z
M 3022 2063 
Q 3016 2534 2758 2815 
Q 2500 3097 2075 3097 
Q 1594 3097 1305 2825 
Q 1016 2553 972 2059 
L 3022 2063 
z
" transform="scale(0.015625)"/>
      </defs>
      <use xlink:href="#DejaVuSans-57"/>
      <use xlink:href="#DejaVuSans-6f" x="93.001953"/>
      <use xlink:href="#DejaVuSans-6c" x="154.183594"/>
      <use xlink:href="#DejaVuSans-66" x="181.966797"/>
      <use xlink:href="#DejaVuSans-65" x="217.171875"/>
     </g>
    </g>
   </g>
  </g>
 </g>
 <defs>
  <clipPath id="p331c5fa878">
   <rect x="33.64" y="10.8" width="675.56" height="393.32"/>
  </clipPath>
 </defs>
</svg>
